<?xml version="1.0" standalone="no"?>
<!DOCTYPE svg PUBLIC "-//W3C//DTD SVG 1.1//EN" "http://www.w3.org/Graphics/SVG/1.1/DTD/svg11.dtd">
<svg xmlns="http://www.w3.org/2000/svg"><metadata>This SVG WebFont was generated by YouWorkForThem.
Â© 2015 Connary Fagen</metadata><defs><font horiz-adv-x="564" id="ywftsvg"><font-face ascent="800" bbox="-165 -302 1018 930" cap-height="700" descent="-200" font-family="" font-stretch="normal" font-weight="500" panose-1="0 0 6 0 0 0 0 0 0 0" underline-position="0" underline-thickness="0" unicode-range="U+0020-FB02" units-per-em="1000" x-height="520"/><missing-glyph d="M418 800v-1020h-323v1020h323zM340 732h-169v-34h67v-38h-68v-33h170v33h-68v38h68v34zM272 600h-102v-106h170v35h-68v71zM238 565v-36h-34v36h34zM340 466h-170v-33h68v-38h-68v-34h102v72h68v33zM340 405h-34v-67h-136v-35h170v102zM340 281h-102v-57h34v23h34v-48 h-102v82h-34v-115h170v115zM340 104h-170v-115h170v115zM306 71v-48h-102v48h102zM340 -34h-170v-34h72l-72 -48v-34h170v34h-104l71 48h33v34z" horiz-adv-x="510"/><glyph d="M92 571q0 43 11.5 71.5t32.5 42t43 19t51 5.5q33 0 74 -9v-61q-40 6 -63 6q-38 0 -55 -16.5t-17 -58.5v-50h128v-64h-128v-456h-77v456h-74v64h74v51zM384 700h77v-75h-77v75zM384 0v520h77v-520h-77z" glyph-name="uniFB01" horiz-adv-x="519" unicode="fi"/><glyph d="M92 571q0 43 11.5 71.5t32.5 42t43 19t51 5.5q33 0 74 -9v-61q-40 6 -63 6q-38 0 -55 -16.5t-17 -58.5v-50h128v-64h-128v-456h-77v456h-74v64h74v51zM394 700h77v-700h-77v700z" glyph-name="uniFB02" horiz-adv-x="529" unicode="fl"/><glyph d="M418 800v-1020h-323v1020h323zM340 732h-169v-34h67v-38h-68v-33h170v33h-68v38h68v34zM272 600h-102v-106h170v35h-68v71zM238 565v-36h-34v36h34zM340 466h-170v-33h68v-38h-68v-34h102v72h68v33zM340 405h-34v-67h-136v-35h170v102zM340 281h-102v-57h34v23h34v-48 h-102v82h-34v-115h170v115zM340 104h-170v-115h170v115zM306 71v-48h-102v48h102zM340 -34h-170v-34h72l-72 -48v-34h170v34h-104l71 48h33v34z" glyph-name=".notdef" horiz-adv-x="510"/><glyph glyph-name="glyph1" horiz-adv-x="0"/><glyph glyph-name="glyph2" horiz-adv-x="333"/><glyph glyph-name="space" horiz-adv-x="293" unicode=" "/><glyph d="M157 194h-85v506h85v-506zM76 100h90v-100h-90v100z" glyph-name="exclam" horiz-adv-x="229" unicode="!"/><glyph d="M60 510h77v190h-77v-190zM214 510h77v190h-77v-190z" glyph-name="quotedbl" horiz-adv-x="331" unicode="&quot;"/><glyph d="M546 447h-109l-19 -194h103v-61h-109l-20 -192h-59l19 192h-147l-19 -192h-59l19 192h-101v61h107l20 194h-102v61h108l19 192h59l-19 -192h147l19 192h59l-19 -192h103v-61zM358 253l20 194h-147l-19 -194h146z" glyph-name="numbersign" horiz-adv-x="591" unicode="#"/><glyph d="M546 186q0 -88 -61 -138.5t-169 -55.5v-82h-48v83q-103 7 -159.5 60.5t-65.5 143.5h81q19 -122 144 -133v269l-29 6q-179 40 -179 186q0 78 54 127.5t154 54.5v83h48v-83q186 -12 207 -178h-80q-15 98 -127 107v-243l27 -6q101 -22 152 -68.5t51 -132.5zM254 407l14 -3 v232q-66 -4 -96.5 -35t-30.5 -77q0 -93 113 -117zM316 64q149 7 149 122q0 58 -34 88.5t-95 43.5l-20 4v-258z" glyph-name="dollar" horiz-adv-x="583" unicode="$"/><glyph d="M173 401q-56 0 -92 40.5t-36 112.5q0 71 36 111t92 40t92 -40t36 -111q0 -72 -36 -112.5t-92 -40.5zM127 0l411 701l59 -1l-410 -700h-60zM174 453q71 0 71 101q0 98 -71 98q-72 0 -72 -98q0 -101 72 -101zM550 -5q-56 0 -91.5 40.5t-35.5 112.5q0 71 36 111t92 40 t92 -40t36 -111q0 -72 -36 -112.5t-93 -40.5zM552 48q71 0 71 101q0 98 -71 98q-72 0 -72 -98q0 -101 72 -101z" glyph-name="percent" horiz-adv-x="724" unicode="%"/><glyph d="M637 38l-53 -47l-75 82q-85 -82 -215 -82q-104 0 -169 56.5t-65 139.5q0 36 11 65t34 52t46 38.5t59 35.5l13 7q-89 99 -89 176q0 68 46.5 111.5t131.5 43.5q81 0 126.5 -43.5t45.5 -111.5q0 -59 -36.5 -105t-113.5 -88l-1 -1l171 -186q38 60 59 151h73 q-29 -126 -82 -204zM202 562q0 -35 20.5 -67t63.5 -77l14 8q58 30 87.5 62t29.5 74q0 43 -28 69t-77 26q-51 0 -80.5 -26t-29.5 -69zM298 63q95 0 162 63l-190 208l-27 -15q-100 -52 -100 -128q0 -55 42.5 -91.5t112.5 -36.5z" glyph-name="ampersand" horiz-adv-x="670" unicode="&amp;"/><glyph d="M50 511h77v189h-77v-189z" glyph-name="quotesingle" horiz-adv-x="177" unicode="'"/><glyph d="M151 745h72q-101 -183 -101 -425q0 -256 101 -450h-72q-106 189 -106 450q0 248 106 425z" glyph-name="parenleft" horiz-adv-x="263" unicode="("/><glyph d="M117 745q106 -177 106 -425q0 -261 -106 -450h-72q101 194 101 450q0 242 -101 425h72z" glyph-name="parenright" horiz-adv-x="263" unicode=")"/><glyph d="M392 565l-109 -29l71 -95l-56 -36l-64 93l-65 -93l-56 36l72 95l-110 29l16 65l112 -34l-3 117h66l-2 -117l112 34zM252 548l-5 20h-27l-5 -20l19 -16z" glyph-name="asterisk" horiz-adv-x="467" unicode="*"/><glyph d="M470 316v-68h-177v-177h-72v177h-176v68h176v177h72v-177h177z" glyph-name="plus" horiz-adv-x="515" unicode="+"/><glyph d="M51 -180v26q19 11 25.5 30t6.5 58v30h-33v97h101v-124q0 -111 -100 -117z" glyph-name="comma" horiz-adv-x="201" unicode=","/><glyph d="M45 308h339v-56h-339v56z" glyph-name="hyphen" horiz-adv-x="429" unicode="-"/><glyph d="M50 100h90v-100h-90v100z" glyph-name="period" horiz-adv-x="190" unicode="."/><glyph d="M388 700l-272 -700h-76l271 700h77z" glyph-name="slash" horiz-adv-x="428" unicode="/"/><glyph d="M309 707q119 0 195.5 -90t76.5 -254v-26q0 -164 -76.5 -254t-195.5 -90q-118 0 -194.5 90t-76.5 254v26q0 164 76.5 254t194.5 90zM504 363q0 127 -52 202t-143 75t-142.5 -75t-51.5 -202v-26q0 -127 51.5 -201.5t142.5 -74.5t143 74.5t52 201.5v26z" glyph-name="zero" horiz-adv-x="619" unicode="0"/><glyph d="M239 700v-700h-77v595q-19 -23 -52 -39t-70 -17v65q44 4 77.5 31t44.5 65h77z" glyph-name="one" horiz-adv-x="329" unicode="1"/><glyph d="M45 0v23q0 97 44.5 164t154.5 136q92 57 118 82q47 45 47 105q0 61 -39.5 95t-103.5 34t-104.5 -37.5t-40.5 -111.5v-17h-75v17q0 99 58 158t162 59q103 0 162 -56t59 -141q0 -41 -13.5 -74.5t-45.5 -63t-59 -48.5t-80 -50q-80 -49 -119.5 -96.5t-39.5 -106.5v-7h365v-64 h-450z" glyph-name="two" horiz-adv-x="540" unicode="2"/><glyph d="M375 374q66 -9 115 -54t49 -120q0 -95 -67 -152.5t-182 -57.5q-112 0 -178 61.5t-67 157.5h76q1 -69 48 -110t122 -41q76 0 123.5 37t47.5 106t-48.5 104.5t-140.5 35.5h-24v58h24q82 0 117 36t35 89q0 54 -38 85t-101 31q-65 0 -104 -36.5t-39 -108.5h-75 q0 100 58.5 156t159.5 56q99 0 157 -51.5t58 -128.5q0 -57 -33.5 -97t-92.5 -56z" glyph-name="three" horiz-adv-x="584" unicode="3"/><glyph d="M521 187h-80v-187h-77v187h-324v64l324 449h77v-449h80v-64zM364 251v350l-249 -350h249z" glyph-name="four" horiz-adv-x="556" unicode="4"/><glyph d="M312 476q97 0 163 -65.5t66 -176.5q0 -113 -66 -178.5t-181 -65.5q-111 0 -176.5 62t-67.5 159h75q2 -69 49.5 -111t119.5 -42q75 0 122.5 45.5t47.5 130.5q0 84 -49 130t-117 46q-95 0 -154 -73h-73l54 363h357v-68h-305l-35 -231q24 31 69 53t101 22z" glyph-name="five" horiz-adv-x="586" unicode="5"/><glyph d="M306 471q101 0 169 -64.5t68 -174.5q0 -113 -68.5 -177.5t-173.5 -64.5q-119 0 -185 89t-66 252q0 75 12.5 138.5t41 119t80.5 87t124 31.5q100 0 156.5 -53.5t61.5 -124.5h-75q-8 49 -43.5 80t-99.5 31q-54 0 -92.5 -25t-57.5 -68.5t-26.5 -91t-6.5 -104.5 q17 53 66 86.5t115 33.5zM301 58q75 0 121 45t46 129q0 81 -46.5 128t-120.5 47q-70 0 -116.5 -46.5t-46.5 -126.5q0 -77 46 -126.5t117 -49.5z" glyph-name="six" horiz-adv-x="588" unicode="6"/><glyph d="M451 700v-67q-200 -307 -246 -633h-79q51 332 253 633h-344v67h416z" glyph-name="seven" horiz-adv-x="486" unicode="7"/><glyph d="M402 392q64 -24 100.5 -71.5t36.5 -115.5q0 -99 -69.5 -155.5t-177.5 -56.5q-107 0 -177 56.5t-70 155.5q0 68 37 115.5t101 71.5q-44 22 -70 60t-26 85q0 73 54.5 121.5t150.5 48.5t150.5 -48.5t54.5 -121.5q0 -47 -25.5 -85.5t-69.5 -59.5zM292 644q-65 0 -99.5 -31 t-34.5 -81q0 -53 36 -86t98 -33q63 0 99 33t36 86q0 50 -35 81t-100 31zM292 61q76 0 122.5 40.5t46.5 107.5q0 70 -46.5 110.5t-122.5 40.5t-122.5 -40.5t-46.5 -110.5q0 -67 46.5 -107.5t122.5 -40.5z" glyph-name="eight" horiz-adv-x="584" unicode="8"/><glyph d="M282 228q-101 0 -169 64.5t-68 174.5q0 113 68.5 177.5t173.5 64.5q119 0 185 -89t66 -252q0 -75 -12.5 -138.5t-41 -119t-80.5 -87t-124 -31.5q-100 0 -156.5 53.5t-61.5 124.5h75q8 -49 43.5 -79.5t99.5 -30.5q186 0 184 288q-18 -53 -67 -86.5t-115 -33.5zM287 642 q-74 0 -120.5 -45.5t-46.5 -129.5q0 -81 47 -127.5t120 -46.5q71 0 117 46t46 126q0 77 -46 127t-117 50z" glyph-name="nine" horiz-adv-x="588" unicode="9"/><glyph d="M55 527h90v-100h-90v100zM55 100h90v-100h-90v100z" glyph-name="colon" horiz-adv-x="198" unicode=":"/><glyph d="M85 554h90v-100h-90v100zM32 -180v26q19 11 25.5 30t6.5 58v30h-33v97h101v-124q0 -111 -100 -117z" glyph-name="semicolon" horiz-adv-x="238" unicode=";"/><glyph d="M462 75l-349 165l349 166v75l-417 -204v-73l417 -204v75z" glyph-name="less" horiz-adv-x="507" unicode="&lt;"/><glyph d="M45 388h367v-56h-367v56zM45 228h367v-56h-367v56z" glyph-name="equal" horiz-adv-x="457" unicode="="/><glyph d="M45 75v-75l417 204v73l-417 204v-75l349 -166z" glyph-name="greater" horiz-adv-x="507" unicode=">"/><glyph d="M263 707q-98 0 -158.5 -58t-59.5 -165h77q0 75 38 115.5t103 40.5t101 -32.5t36 -90.5q0 -29 -13 -52.5t-32.5 -38t-42 -33t-42 -36.5t-32.5 -49.5t-13 -70.5v-43h81v43q0 38 17.5 66.5t43 47.5t50.5 38.5t42.5 51.5t17.5 76q0 90 -59.5 140t-154.5 50zM228 100h90v-100 h-90v100z" glyph-name="question" horiz-adv-x="522" unicode="?"/><glyph d="M610 85q-90 -92 -232 -92q-137 0 -240 101t-103 253q0 156 103 258t240 102q138 0 240.5 -102t102.5 -256q0 -87 -39 -135t-94 -48q-40 0 -66 25.5t-34 67.5q-15 -45 -50 -70t-79 -25q-62 0 -109 46.5t-47 136.5q0 85 47.5 130.5t107.5 45.5q43 0 78 -28.5t35 -67.5v88 h59v-217q0 -77 61 -77q76 0 76 128q0 132 -84.5 217t-204.5 85q-116 0 -202 -86t-86 -218q0 -127 87 -213t201 -86q96 0 168 57zM364 222q43 0 72 33.5t29 91.5q0 54 -28.5 85.5t-72.5 31.5q-43 0 -72.5 -30.5t-29.5 -86.5q0 -60 29.5 -92.5t72.5 -32.5z" glyph-name="at" horiz-adv-x="756" unicode="@"/><glyph d="M581 0l-71 181h-324l-72 -181h-88l286 700h71l287 -700h-89zM211 244h274l-137 349z" glyph-name="A" horiz-adv-x="695" unicode="A"/><glyph d="M412 383q71 -20 109.5 -67.5t38.5 -109.5q0 -206 -253 -206h-249v700h245q104 0 159 -47t55 -126q0 -52 -27.5 -90t-77.5 -54zM139 629v-220h176q59 0 89.5 30t30.5 84q0 106 -129 106h-167zM307 71q170 0 170 135q0 62 -42 100.5t-127 38.5h-169v-274h168z" glyph-name="B" horiz-adv-x="603" unicode="B"/><glyph d="M343 66q144 0 182 107h80q-18 -88 -88 -134.5t-175 -46.5q-139 0 -221.5 90.5t-82.5 267.5t82.5 267.5t221.5 90.5q104 0 173.5 -46.5t87.5 -133.5h-80q-38 106 -180 106q-104 0 -162.5 -70t-58.5 -214t58.5 -214t162.5 -70z" glyph-name="C" horiz-adv-x="638" unicode="C"/><glyph d="M278 700q162 0 247 -91t85 -259t-85 -259t-247 -91h-220v700h220zM271 74q131 0 192.5 68t61.5 208t-61.5 208t-192.5 68h-132v-552h132z" glyph-name="D" horiz-adv-x="658" unicode="D"/><glyph d="M139 74h371v-74h-452v700h442v-74h-361v-231h301v-70h-301v-251z" glyph-name="E" horiz-adv-x="547" unicode="E"/><glyph d="M494 626h-355v-243h289v-70h-289v-313h-81v700h436v-74z" glyph-name="F" horiz-adv-x="527" unicode="F"/><glyph d="M633 352q9 -184 -63 -272t-227 -88q-141 0 -223 90t-82 268q0 179 82 268.5t223 89.5q102 0 171.5 -44.5t88.5 -123.5h-77q-44 94 -183 94q-105 0 -163 -70t-58 -214t58 -214t163 -70q108 0 160 52t56 168h-161v66h222h13z" glyph-name="G" horiz-adv-x="667" unicode="G"/><glyph d="M509 700h82v-700h-82v309h-370v-309h-81v700h81v-324h370v324z" glyph-name="H" horiz-adv-x="649" unicode="H"/><glyph d="M139 0h-81v700h81v-700z" glyph-name="I" horiz-adv-x="197" unicode="I"/><glyph d="M84 127q53 -64 141 -64q72 0 112 46.5t40 165.5v425h82v-435q0 -141 -65.5 -206.5t-168.5 -65.5q-121 0 -192 82z" glyph-name="J" horiz-adv-x="517" unicode="J"/><glyph d="M535 0l-275 317l-121 -135v-182h-81v700h81v-414l367 414h96l-297 -332l325 -368h-95z" glyph-name="K" horiz-adv-x="665" unicode="K"/><glyph d="M144 74h327v-74h-408v700h81v-626z" glyph-name="L" horiz-adv-x="514" unicode="L"/><glyph d="M777 700v-700h-82v531l-246 -531h-64l-246 531v-531h-81v700h81l278 -599l278 599h82z" glyph-name="M" horiz-adv-x="834" unicode="M"/><glyph d="M591 700v-700h-87l-365 569v-569h-81v700h85l366 -570v570h82z" glyph-name="N" horiz-adv-x="649" unicode="N"/><glyph d="M343 708q140 0 222.5 -90t82.5 -268t-82.5 -268t-222.5 -90t-222.5 90t-82.5 268t82.5 268t222.5 90zM343 66q104 0 162.5 70t58.5 214t-58.5 214t-162.5 70t-162.5 -70t-58.5 -214t58.5 -214t162.5 -70z" glyph-name="O" horiz-adv-x="686" unicode="O"/><glyph d="M312 700q120 0 180 -59t60 -167q0 -107 -60 -165.5t-180 -58.5h-173v-250h-81v700h254zM313 323q153 0 153 151q0 153 -153 153h-174v-304h174z" glyph-name="P" horiz-adv-x="594" unicode="P"/><glyph d="M678 33l-49 -48l-79 81q-78 -74 -207 -74q-140 0 -222.5 90t-82.5 268t82.5 268t222.5 90t222.5 -90t82.5 -268q0 -141 -55 -231zM343 66q95 0 151 56l-116 118l49 47l106 -107q31 67 31 170q0 144 -58.5 214t-162.5 70t-162.5 -70t-58.5 -214t58.5 -214t162.5 -70z" glyph-name="Q" horiz-adv-x="716" unicode="Q"/><glyph d="M569 117q0 -90 20 -117h-86q-20 27 -20 117v56q0 64 -32.5 89t-88.5 25h-223v-287h-81v700h273q237 0 237 -205q0 -122 -111 -170q59 -16 85.5 -52t26.5 -98v-58zM345 354q138 0 138 140q0 70 -36.5 101.5t-116.5 31.5h-191v-273h206z" glyph-name="R" horiz-adv-x="621" unicode="R"/><glyph d="M355 387q104 -22 157.5 -68.5t53.5 -132.5q0 -92 -69.5 -143t-191.5 -51q-121 0 -186.5 55t-75.5 150h84q21 -134 178 -134q177 0 177 123q0 104 -134 132l-101 21q-186 40 -186 186q0 82 62 132.5t176 50.5q110 0 171 -47t72 -132h-83q-17 108 -160 108 q-80 0 -117 -31.5t-37 -81.5q0 -93 117 -117z" glyph-name="S" horiz-adv-x="608" unicode="S"/><glyph d="M519 700v-73h-200v-627h-82v627h-199v73h281h200z" glyph-name="T" horiz-adv-x="557" unicode="T"/><glyph d="M589 264q0 -128 -71.5 -199.5t-194.5 -71.5q-122 0 -193.5 71.5t-71.5 199.5v436h81v-429q0 -102 47 -153t137 -51t137.5 51.5t47.5 152.5v429h81v-436z" glyph-name="U" horiz-adv-x="647" unicode="U"/><glyph d="M572 700h86l-279 -700h-69l-279 700h86l227 -597z" glyph-name="V" horiz-adv-x="689" unicode="V"/><glyph d="M890 700h84l-203 -700h-76l-192 585l-191 -585h-76l-203 700h84l161 -581l184 581h83l183 -581z" glyph-name="W" horiz-adv-x="1007" unicode="W"/><glyph d="M634 0h-90l-210 299l-209 -299h-90l254 363l-236 337h90l191 -273l191 273h90l-236 -337z" glyph-name="X" horiz-adv-x="669" unicode="X"/><glyph d="M372 276v-276h-82v276l-257 424h93l205 -350l205 350h93z" glyph-name="Y" horiz-adv-x="661" unicode="Y"/><glyph d="M557 73v-73h-512v73l419 554h-412v73h496v-73l-419 -554h428z" glyph-name="Z" horiz-adv-x="602" unicode="Z"/><glyph d="M122 678v-741h86v-67h-163v875h163v-67h-86z" glyph-name="bracketleft" horiz-adv-x="253" unicode="["/><glyph d="M60 700h76l272 -700h-77z" glyph-name="backslash" horiz-adv-x="448" unicode="\"/><glyph d="M131 678h-86v67h163v-875h-163v67h86v741z" glyph-name="bracketright" horiz-adv-x="253" unicode="]"/><glyph d="M371 465l-131 183l-132 -183h-63l169 235h51l169 -235h-63z" glyph-name="asciicircum" horiz-adv-x="479" unicode="^"/><glyph d="M45 0h500v-68h-500v68z" glyph-name="underscore" horiz-adv-x="590" unicode="_"/><glyph d="M176 581l-67 128h-109l108 -128h68z" glyph-name="grave" horiz-adv-x="176" unicode="`"/><glyph d="M472 92q0 -22 9.5 -31t31.5 -8v-53q-16 -5 -34 -5q-77 0 -77 75v36q-7 -15 -19.5 -31t-35.5 -37t-60 -34t-81 -13q-77 0 -125 39.5t-48 112.5q0 132 180 156q153 20 182 36v11q0 67 -30.5 93t-98.5 26q-115 0 -127 -73h-74q8 66 60.5 100t141.5 34q106 0 155.5 -45.5 t49.5 -152.5v-236zM395 164v116q-27 -15 -183 -37q-54 -8 -77.5 -31.5t-23.5 -65.5q0 -43 28 -68.5t79 -25.5t92.5 24t58 45.5t26.5 42.5z" glyph-name="a" horiz-adv-x="540" unicode="a"/><glyph d="M303 526q42 0 81 -16t72 -47t53 -83.5t20 -119.5q0 -131 -67.5 -200t-158.5 -69q-63 0 -107.5 30.5t-65.5 80.5v-102h-77v700h77v-277q51 103 173 103zM291 55q69 0 115.5 52t46.5 153q0 100 -46.5 151t-115.5 51q-71 0 -118 -51t-47 -151t47.5 -152.5t117.5 -52.5z" glyph-name="b" horiz-adv-x="559" unicode="b"/><glyph d="M272 55q105 0 140 91h71q-43 -155 -212 -155q-98 0 -168 68t-70 200t70 199.5t168 67.5q166 0 210 -151h-71q-36 87 -138 87q-71 0 -117 -51.5t-46 -151.5t46 -152t117 -52z" glyph-name="c" horiz-adv-x="511" unicode="c"/><glyph d="M258 526q122 0 174 -103v277h77v-700h-77v102q-21 -50 -66 -80.5t-108 -30.5q-90 0 -157.5 69t-67.5 200q0 130 67.5 198t157.5 68zM270 55q70 0 118 53t48 152q0 100 -47.5 151t-118.5 51q-69 0 -115 -51t-46 -151q0 -101 46 -153t115 -52z" glyph-name="d" unicode="d"/><glyph d="M505 256v-24h-396q7 -88 55 -132.5t117 -44.5q89 0 133 59h75q-32 -65 -84 -94t-130 -29q-98 0 -170 68.5t-72 199.5q0 129 71 198t169 69q99 0 165.5 -68t66.5 -202zM273 462q-65 0 -111 -45t-53 -131h320q-4 86 -47 131t-109 45z" glyph-name="e" horiz-adv-x="538" unicode="e"/><glyph d="M241 645q-38 0 -55 -16.5t-17 -58.5v-50h128v-64h-128v-456h-77v456h-74v64h74v51q0 43 11.5 71.5t32.5 42t43 19t51 5.5q33 0 74 -9v-61q-40 6 -63 6z" glyph-name="f" horiz-adv-x="336" unicode="f"/><glyph d="M432 520h77v-514v-6q-4 -220 -246 -220q-70 0 -125 27t-81 73l51 31q45 -66 155 -66q84 0 126.5 36.5t42.5 124.5v96q-21 -47 -66 -75.5t-108 -28.5q-90 0 -157.5 67t-67.5 195q0 130 67.5 198t157.5 68q122 0 174 -103v97zM270 64q71 0 118.5 48.5t47.5 147.5 q0 100 -47.5 150t-118.5 50q-69 0 -115 -50t-46 -150q0 -98 46 -147t115 -49z" glyph-name="g" unicode="g"/><glyph d="M315 525q186 0 186 -207v-318h-77v313q0 144 -128 144q-69 0 -113 -44t-53 -91v-322h-77v700h77v-180v-120q5 16 18.5 35.5t35.5 40.5t56.5 35t74.5 14z" glyph-name="h" horiz-adv-x="556" unicode="h"/><glyph d="M58 700h77v-75h-77v75zM58 520h77v-520h-77v520z" glyph-name="i" horiz-adv-x="193" unicode="i"/><glyph d="M74 700h77v-72h-77v72zM-68 -121q56 -25 89 -25q53 0 53 84v582h77v-596q0 -144 -124 -144q-46 0 -95 26v73z" glyph-name="j" horiz-adv-x="204" unicode="j"/><glyph d="M430 0l-220 233l-77 -80v-153h-77v167v533h77v-453l263 273h93l-228 -234l261 -286h-92z" glyph-name="k" horiz-adv-x="544" unicode="k"/><glyph d="M58 700h77v-700h-77v700z" glyph-name="l" horiz-adv-x="193" unicode="l"/><glyph d="M663 525q80 0 129.5 -49.5t49.5 -160.5v-315h-77v312q0 77 -33.5 111.5t-88.5 34.5q-66 0 -111 -47.5t-45 -93.5v-317h-77v313q0 145 -122 145q-63 0 -104.5 -44.5t-50.5 -91.5v-322h-77v520h77v-120q12 40 58.5 82.5t116.5 42.5q138 0 170 -127q18 49 68 88t117 39z" glyph-name="m" horiz-adv-x="898" unicode="m"/><glyph d="M318 525q185 0 185 -207v-318h-77v313q0 145 -128 145q-68 0 -112 -44.5t-53 -91.5v-322h-77v520h77v-120q12 40 61 82.5t124 42.5z" glyph-name="n" horiz-adv-x="559" unicode="n"/><glyph d="M273 526q96 0 168.5 -69t72.5 -198q0 -67 -21.5 -120t-56.5 -84.5t-77 -47.5t-86 -16q-60 0 -113 27t-90 90t-37 151q0 129 72 198t168 69zM438 259q0 100 -48 151.5t-117 51.5t-116.5 -51.5t-47.5 -151.5t47.5 -152t116.5 -52t117 52t48 152z" glyph-name="o" horiz-adv-x="546" unicode="o"/><glyph d="M303 526q91 0 158.5 -68.5t67.5 -197.5q0 -131 -67 -199t-159 -68q-64 0 -108.5 29.5t-64.5 80.5v-293h-77v710h77v-98q50 104 173 104zM291 59q70 0 116 50t46 151q0 100 -46 150t-116 50q-71 0 -118 -49.5t-47 -150.5q0 -100 47 -150.5t118 -50.5z" glyph-name="p" horiz-adv-x="560" unicode="p"/><glyph d="M259 526q123 0 173 -104v98h77v-710h-77v293q-20 -51 -64.5 -80.5t-108.5 -29.5q-92 0 -159 68t-67 199q0 129 67.5 197.5t158.5 68.5zM271 59q71 0 118 50.5t47 150.5q0 101 -47 150.5t-118 49.5q-70 0 -116 -50t-46 -150q0 -101 46 -151t116 -50z" glyph-name="q" horiz-adv-x="562" unicode="q"/><glyph d="M310 525q10 0 38 -2v-68q-13 1 -35 1q-75 -1 -121.5 -41t-61.5 -111v-304h-77v520h77v-129q13 57 61 95.5t119 38.5z" glyph-name="r" horiz-adv-x="371" unicode="r"/><glyph d="M368 390q-15 42 -45.5 59.5t-80.5 17.5q-115 0 -115 -81q0 -35 20.5 -54t69.5 -31l82 -20q84 -20 120.5 -47t36.5 -93q0 -77 -59 -112.5t-151 -35.5q-90 0 -146.5 37.5t-66.5 115.5h71q20 -94 142 -94q59 0 95 21.5t36 67.5q0 38 -21.5 55.5t-70.5 28.5l-92 22 q-74 18 -109 50.5t-35 88.5q0 67 51 103.5t141 36.5q164 0 198 -136h-71z" glyph-name="s" horiz-adv-x="488" unicode="s"/><glyph d="M216 60q27 0 65 7v-62q-30 -11 -84 -11q-48 0 -75 23t-27 81v358h-75v64h75v130h77v-130h100v-64h-100v-355q0 -22 10 -31.5t34 -9.5z" glyph-name="t" horiz-adv-x="314" unicode="t"/><glyph d="M427 520h77v-520h-77v120q-13 -40 -62 -82.5t-124 -42.5q-185 0 -185 207v318h77v-313q0 -144 128 -144q68 0 111.5 44t54.5 91v322z" glyph-name="u" horiz-adv-x="559" unicode="u"/><glyph d="M317 0h-87l-207 520h78l172 -441l173 441h78z" glyph-name="v" horiz-adv-x="547" unicode="v"/><glyph d="M780 520l-155 -520h-72l-152 425l-152 -425h-71l-155 520h78l120 -425l149 425h63l148 -425l121 425h78z" glyph-name="w" horiz-adv-x="803" unicode="w"/><glyph d="M499 0h-86l-148 207l-149 -207h-85l191 267l-182 253h86l139 -193l139 193h85l-181 -253z" glyph-name="x" horiz-adv-x="530" unicode="x"/><glyph d="M429 520h77l-220 -563q-33 -83 -82 -114t-122 -34v67q101 5 132 85l12 32l-203 527h76l163 -434z" glyph-name="y" horiz-adv-x="528" unicode="y"/><glyph d="M134 66h326v-66h-417v66l325 388h-315v66h407v-66z" glyph-name="z" horiz-adv-x="502" unicode="z"/><glyph d="M167 374l-44 -68l44 -66v-269q0 -16 9.5 -25t25.5 -9h35v-67h-63q-35 0 -59.5 22t-24.5 64v279l-45 71l45 73v280q0 42 25 64t59 22h63v-67h-35q-16 0 -25.5 -9t-9.5 -25v-270z" glyph-name="braceleft" horiz-adv-x="282" unicode="{"/><glyph d="M75 800h68v-990h-68v990z" glyph-name="bar" horiz-adv-x="218" unicode="|"/><glyph d="M115 374v270q0 16 -9.5 25t-25.5 9h-35v67h63q34 0 59 -22t25 -64v-280l45 -73l-45 -71v-279q0 -42 -24.5 -64t-59.5 -22h-63v67h35q16 0 25.5 9t9.5 25v269l45 66z" glyph-name="braceright" horiz-adv-x="282" unicode="}"/><glyph d="M377 327h39q0 -48 -29 -76.5t-74 -28.5q-39 0 -88.5 38.5t-80.5 38.5q-27 0 -41.5 -14t-13.5 -32h-39q0 48 29 76.5t74 28.5q25 0 49 -12t40 -26.5t37.5 -26.5t42.5 -12q27 0 41.5 14t13.5 32z" glyph-name="asciitilde" horiz-adv-x="466" unicode="~"/><glyph d="M76 420v100h90v-100h-90zM157 327v-507h-85v507h85z" glyph-name="exclamdown" horiz-adv-x="188" unicode="¡"/><glyph d="M483 218q-41 -142 -190 -151v-107h-49v107q-89 10 -150 76t-61 185q0 120 61 186t150 75v111h49v-111q148 -9 188 -146h-71q-33 77 -117 84v-397q86 7 119 88h71zM109 328q0 -87 37.5 -137t97.5 -60v395q-60 -10 -97.5 -60t-37.5 -138z" glyph-name="cent" horiz-adv-x="505" unicode="¢"/><glyph d="M496 480h-77v18q0 66 -39.5 104t-104.5 38q-67 0 -105.5 -36t-38.5 -96q0 -21 6.5 -45.5t12.5 -38t21.5 -44t19.5 -38.5h136v-48h-117q8 -27 8 -53q0 -95 -92 -183q44 15 92 15t85 -8.5t86.5 -9.5t96.5 13v-68q-52 -13 -106.5 -10t-96.5 12.5t-94 8.5t-99 -21l-40 53 q93 97 93 196q0 25 -10 55h-88v48h65q-2 5 -10.5 20.5t-12 22t-10 21t-9.5 24t-7 23.5t-5.5 27.5t-1.5 28.5q0 89 62.5 143.5t158.5 54.5q92 0 156.5 -57.5t64.5 -151.5v-18z" glyph-name="sterling" horiz-adv-x="541" unicode="£"/><glyph d="M505 476q0 -68 -39 -126l46 -46l-51 -50l-44 44q-60 -46 -136 -46t-135 45l-44 -43l-51 50l45 45q-39 56 -39 127q0 70 40 128l-46 46l51 51l45 -45q58 44 134 44q75 0 134 -45l46 46l51 -51l-47 -46q40 -59 40 -128zM281 317q68 0 114 48.5t46 110.5q0 61 -46 110 t-114 49t-113.5 -49t-45.5 -110q0 -62 45.5 -110.5t113.5 -48.5z" glyph-name="currency" horiz-adv-x="563" unicode="¤"/><glyph d="M629 700l-255 -421h127v-51h-129v-54h129v-52h-129v-122h-82v122h-135v52h135v54h-135v51h132l-254 421h93l205 -350l205 350h93z" glyph-name="yen" horiz-adv-x="656" unicode="¥"/><glyph d="M75 800h68v-280h-68v280zM75 90h68v-280h-68v280z" glyph-name="brokenbar" horiz-adv-x="218" unicode="¦"/><glyph d="M580 186q0 -72 -43 -118q33 -46 33 -111q0 -92 -69.5 -142.5t-191.5 -50.5q-121 0 -186.5 55t-75.5 150h84q21 -134 178 -134q177 0 177 123q0 104 -134 132l-101 21q-186 40 -186 186q0 73 46 119q-36 42 -36 109q0 82 62 132.5t176 50.5q110 0 171 -47t72 -132h-83 q-17 108 -160 108q-80 0 -117 -31.5t-37 -81.5q0 -93 117 -117l93 -20q104 -22 157.5 -68.5t53.5 -132.5zM359 159q71 -15 117 -40q20 28 20 67q0 104 -134 132l-101 21q-49 11 -85 28q-27 -28 -27 -71q0 -93 117 -117z" glyph-name="section" horiz-adv-x="622" unicode="§"/><glyph d="M0 709h81v-89h-81v89zM213 709h80v-89h-80v89z" glyph-name="dieresis" horiz-adv-x="293" unicode="¨"/><glyph d="M392 -7q-150 0 -253.5 101.5t-103.5 255.5q0 153 104 254.5t253 101.5t253 -101.5t104 -254.5q0 -154 -103.5 -255.5t-253.5 -101.5zM392 43q129 0 218.5 87t89.5 220t-89.5 220t-218.5 87t-218 -87t-89 -220t89 -220t218 -87zM391 190q91 0 122 74h56q-20 -65 -68 -95 t-110 -30q-82 0 -141 57t-59 154t59 154t141 57q61 0 108.5 -30t68.5 -94h-57q-30 72 -120 72q-61 0 -102.5 -42t-41.5 -117t41.5 -117.5t102.5 -42.5z" glyph-name="copyright" horiz-adv-x="784" unicode="©"/><glyph d="M309 462q0 -42 22 -78h-60q-13 16 -15 52q-44 -54 -105 -54q-118 0 -118 100q0 46 29 67t84 25l104 8q-1 40 -18.5 57.5t-58.5 17.5q-65 0 -98 -40l-33 33q43 58 131 58q76 0 106.5 -36t29.5 -114v-96zM156 433q37 0 61 19.5t33 40.5v46q-11 -3 -101 -10 q-31 -3 -44.5 -14.5t-13.5 -33.5q0 -48 65 -48z" glyph-name="ordfeminine" horiz-adv-x="359" unicode="ª"/><glyph d="M175 394l-90 -95l90 -96v-62l-130 90v135l130 90v-62zM350 394l-90 -95l90 -96v-62l-130 90v135l130 90v-62z" glyph-name="guillemotleft" horiz-adv-x="395" unicode="«"/><glyph d="M444 312v-177h-77v115h-322v62h399z" glyph-name="logicalnot" horiz-adv-x="488" unicode="¬"/><glyph d="M45 308h339v-56h-339v56z" glyph-name="uni00AD" horiz-adv-x="400" unicode="­"/><glyph d="M392 -7q-150 0 -253.5 101.5t-103.5 255.5q0 153 104 254.5t253 101.5t253 -101.5t104 -254.5q0 -154 -103.5 -255.5t-253.5 -101.5zM392 43q129 0 218.5 87t89.5 220t-89.5 220t-218.5 87t-218 -87t-89 -220t89 -220t218 -87zM534 219q0 -55 12 -68h-50q-10 13 -10 69 v30q0 37 -19 50t-51 13h-114v-162h-48v398h150q131 0 131 -113q0 -75 -72 -100q38 -7 54.5 -27t16.5 -58v-32zM408 355q37 0 58 20.5t21 60.5q0 72 -83 72h-102v-153h106z" glyph-name="registered" horiz-adv-x="784" unicode="®"/><glyph d="M0 709h305v-49h-305v49z" glyph-name="macron" horiz-adv-x="305" unicode="¯"/><glyph d="M192 426q-61 0 -104 43.5t-43 104.5q0 60 43 102.5t104 42.5t104 -42.5t43 -102.5q0 -61 -43 -104.5t-104 -43.5zM192 485q38 0 62.5 26.5t24.5 62.5q0 35 -24.5 60.5t-62.5 25.5t-62.5 -25.5t-24.5 -60.5q0 -36 24.5 -62.5t62.5 -26.5z" glyph-name="degree" horiz-adv-x="384" unicode="°"/><glyph d="M293 353h177v-68h-177v-177h-72v177h-176v68h176v177h72v-177zM74 -16v57h366v-57h-366z" glyph-name="plusminus" horiz-adv-x="515" unicode="±"/><glyph d="M55 440v9q0 37 17 64t57 53q42 26 49 39q7 10 7 25q0 19 -13 31t-34 12q-22 0 -35 -12.5t-13 -36.5v-7h-35v7q0 37 22 59t61 22q38 0 60 -21t22 -54q0 -29 -18.5 -48.5t-55.5 -41.5q-54 -33 -54 -66v-3h131v-31h-168z" glyph-name="uni00B2" horiz-adv-x="258" unicode="²"/><glyph d="M195 579q23 -4 41.5 -20.5t18.5 -45.5q0 -33 -25.5 -55t-70.5 -22q-43 0 -68 23.5t-25 61.5h33q1 -55 61 -55q27 0 44 12t17 36q0 48 -67 48h-11v29h11q53 0 53 43q0 19 -13.5 30t-35.5 11q-51 0 -51 -52h-33q0 39 22.5 60.5t61.5 21.5q38 0 60.5 -19.5t22.5 -49.5 q0 -44 -46 -57z" glyph-name="uni00B3" horiz-adv-x="273" unicode="³"/><glyph d="M0 581h68l108 128h-109z" glyph-name="acute" horiz-adv-x="176" unicode="´"/><glyph d="M427 520h77v-520h-77v120q-13 -40 -62 -82.5t-124 -42.5q-65 0 -108 27v-212h-77v710h77v-313q0 -144 128 -144q68 0 111.5 44t54.5 91v322z" glyph-name="uni00B5" horiz-adv-x="553" unicode="µ"/><glyph d="M527 700v-920h-64v869h-87v-869h-68v526h-70q-97 0 -152.5 55t-55.5 141q0 87 55.5 142.5t152.5 55.5h138h151z" glyph-name="paragraph" horiz-adv-x="582" unicode="¶"/><glyph d="M50 335h90v-99h-90v99z" glyph-name="periodcentered" horiz-adv-x="188" unicode="·"/><glyph d="M64 -54q37 4 65.5 -16.5t28.5 -58.5q0 -92 -153 -92v36q91 1 91 54q0 27 -23.5 36t-52.5 -7l-20 31l46 72h70z" glyph-name="cedilla" horiz-adv-x="158" unicode="¸"/><glyph d="M110 701v-261h-33v215q-13 -24 -47 -24v34q14 0 27.5 11t19.5 25h33z" glyph-name="uni00B9" horiz-adv-x="180" unicode="¹"/><glyph d="M188 708q61 0 108.5 -44.5t47.5 -119.5q0 -76 -47.5 -120.5t-108.5 -44.5q-60 0 -107.5 45t-47.5 120t47.5 119.5t107.5 44.5zM286 545q0 52 -28.5 81t-69.5 29t-69.5 -29t-28.5 -81t28.5 -82t69.5 -30t69.5 30t28.5 82z" glyph-name="ordmasculine" horiz-adv-x="377" unicode="º"/><glyph d="M45 394v62l130 -90v-135l-130 -90v62l90 96zM220 394v62l130 -90v-135l-130 -90v62l90 96z" glyph-name="guillemotright" horiz-adv-x="395" unicode="»"/><glyph d="M138 701v-261h-33v215q-13 -24 -47 -24v34q14 0 27.5 11t19.5 25h33zM93 0h-42l436 700h42zM551 66h-30v-66h-33v66h-119v27l119 168h33v-168h30v-27zM488 93v125l-88 -125h88z" glyph-name="onequarter" horiz-adv-x="569" unicode="¼"/><glyph d="M141 701v-261h-33v215q-14 -24 -47 -24v34q14 0 27.5 11t19.5 25h33zM105 0h-43l436 700h43zM381 0v9q0 37 16.5 64t57.5 53q23 15 31 20.5t16 17t8 26.5q0 20 -12.5 31.5t-34.5 11.5t-35 -13t-13 -36v-7h-34v7q0 37 22 59t60 22q39 0 61 -21t22 -54q0 -29 -18.5 -48.5 t-56.5 -41.5q-53 -32 -53 -66v-3h130v-31h-167z" glyph-name="onehalf" horiz-adv-x="588" unicode="½"/><glyph d="M176 579q23 -4 41 -20.5t18 -45.5q0 -33 -25.5 -55t-69.5 -22t-69 23.5t-25 61.5h34q1 -55 61 -55t60 48t-67 48h-11v29h11q54 0 54 43q0 19 -13.5 30t-35.5 11q-51 0 -51 -52h-34q0 39 23 60.5t62 21.5q38 0 60 -19.5t22 -49.5q0 -44 -45 -57zM133 0h-42l436 700h42z M569 66h-30v-66h-33v66h-119v27l119 168h33v-168h30v-27zM506 93v125l-88 -125h88z" glyph-name="threequarters" horiz-adv-x="616" unicode="¾"/><glyph d="M294 420h-90v100h90v-100zM259 -187q99 0 159 57.5t59 165.5h-77q0 -76 -38 -116t-103 -40t-101 32.5t-36 91.5q0 29 13 52t32.5 37.5t42 33t42 37t32.5 49.5t13 70v44h-81v-44q0 -38 -17.5 -66.5t-43 -47.5t-50.5 -38.5t-42.5 -51t-17.5 -75.5q0 -91 59.5 -141 t154.5 -50z" glyph-name="questiondown" horiz-adv-x="522" unicode="¿"/><glyph d="M385 761h-68l-108 128h109zM581 0l-71 181h-324l-72 -181h-88l286 700h71l287 -700h-89zM211 244h274l-137 349z" glyph-name="Agrave" horiz-adv-x="695" unicode="À"/><glyph d="M490 889l-108 -128h-68l67 128h109zM581 0l-71 181h-324l-72 -181h-88l286 700h71l287 -700h-89zM211 244h274l-137 349z" glyph-name="Aacute" horiz-adv-x="695" unicode="Á"/><glyph d="M348 849l-96 -89h-62l90 129h135l90 -129h-62zM581 0l-71 181h-324l-72 -181h-88l286 700h71l287 -700h-89zM211 244h274l-137 349z" glyph-name="Acircumflex" horiz-adv-x="695" unicode="Â"/><glyph d="M262 853q-26 0 -39.5 -13t-12.5 -30h-38q0 45 28 72t71 27q37 0 84 -36t76 -36q26 0 40 13t13 30h37q0 -45 -28 -72t-71 -27q-37 0 -84 36t-76 36zM581 0l-71 181h-324l-72 -181h-88l286 700h71l287 -700h-89zM211 244h274l-137 349z" glyph-name="Atilde" horiz-adv-x="695" unicode="Ã"/><glyph d="M282 889v-89h-81v89h81zM494 889v-89h-80v89h80zM581 0l-71 181h-324l-72 -181h-88l286 700h71l287 -700h-89zM211 244h274l-137 349z" glyph-name="Adieresis" horiz-adv-x="695" unicode="Ä"/><glyph d="M349 761q-37 0 -62 24.5t-25 59.5t25 60t62 25q35 0 59.5 -25t24.5 -60t-24.5 -59.5t-59.5 -24.5zM347 892q-19 0 -32.5 -13.5t-13.5 -33.5q0 -19 13.5 -32.5t32.5 -13.5t33 13.5t14 32.5q0 20 -13.5 33.5t-33.5 13.5zM581 0l-71 181h-324l-72 -181h-88l286 700h71 l287 -700h-89zM211 244h274l-137 349z" glyph-name="Aring" horiz-adv-x="695" unicode="Å"/><glyph d="M587 74h370v-74h-452v218h-244l-148 -218h-87l479 700h86h356v-74h-360v-231h300v-70h-300v-251zM306 284h199v291z" glyph-name="AE" horiz-adv-x="991" unicode="Æ"/><glyph d="M605 173q-18 -86 -86.5 -132.5t-170.5 -48.5l-43 -46q36 4 64.5 -16.5t28.5 -58.5q0 -92 -153 -92v36q91 1 91 54q0 27 -23.5 36t-52.5 -7l-13 20l-7 11l43 67q-114 18 -179.5 107t-65.5 247q0 177 82.5 267.5t221.5 90.5q104 0 173.5 -46.5t87.5 -133.5h-80 q-38 106 -180 106q-104 0 -162.5 -70t-58.5 -214t58.5 -214t162.5 -70q144 0 182 107h80z" glyph-name="Ccedilla" horiz-adv-x="638" unicode="Ç"/><glyph d="M326 761h-68l-108 128h109zM139 74h371v-74h-452v700h442v-74h-361v-231h301v-70h-301v-251z" glyph-name="Egrave" horiz-adv-x="547" unicode="È"/><glyph d="M430 889l-108 -128h-68l67 128h109zM139 74h371v-74h-452v700h442v-74h-361v-231h301v-70h-301v-251z" glyph-name="Eacute" horiz-adv-x="547" unicode="É"/><glyph d="M289 849l-96 -89h-62l90 129h135l90 -129h-62zM139 74h371v-74h-452v700h442v-74h-361v-231h301v-70h-301v-251z" glyph-name="Ecircumflex" horiz-adv-x="547" unicode="Ê"/><glyph d="M223 889v-89h-81v89h81zM435 889v-89h-80v89h80zM139 74h371v-74h-452v700h442v-74h-361v-231h301v-70h-301v-251z" glyph-name="Edieresis" horiz-adv-x="547" unicode="Ë"/><glyph d="M136 761l-67 128h-109l108 -128h68zM139 0h-81v700h81v-700z" glyph-name="Igrave" horiz-adv-x="197" unicode="Ì"/><glyph d="M65 761h68l108 128h-109zM139 0h-81v700h81v-700z" glyph-name="Iacute" horiz-adv-x="197" unicode="Í"/><glyph d="M194 760l-95 89l-96 -89h-62l90 129h135l90 -129h-62zM139 0h-81v700h81v-700z" glyph-name="Icircumflex" horiz-adv-x="197" unicode="Î"/><glyph d="M-48 889h81v-89h-81v89zM165 889h80v-89h-80v89zM139 0h-81v700h81v-700z" glyph-name="Idieresis" horiz-adv-x="197" unicode="Ï"/><glyph d="M348 700q162 0 247 -91t85 -259t-85 -259t-247 -91h-220v320h-55v56h55v324h220zM341 74q131 0 193 68t62 208t-62 208t-193 68h-131v-250h202v-56h-202v-246h131z" glyph-name="Eth" horiz-adv-x="760" unicode="Ð"/><glyph d="M462 880h37q0 -45 -28 -72t-71 -27q-37 0 -84 36t-76 36q-26 0 -39.5 -13t-12.5 -30h-38q0 45 28 72t71 27q37 0 84 -36t76 -36q26 0 40 13t13 30zM591 700v-700h-87l-365 569v-569h-81v700h85l366 -570v570h82z" glyph-name="Ntilde" horiz-adv-x="649" unicode="Ñ"/><glyph d="M380 761l-67 128h-109l108 -128h68zM343 708q140 0 222.5 -90t82.5 -268t-82.5 -268t-222.5 -90t-222.5 90t-82.5 268t82.5 268t222.5 90zM343 66q104 0 162.5 70t58.5 214t-58.5 214t-162.5 70t-162.5 -70t-58.5 -214t58.5 -214t162.5 -70z" glyph-name="Ograve" horiz-adv-x="686" unicode="Ò"/><glyph d="M309 761h68l108 128h-109zM343 708q140 0 222.5 -90t82.5 -268t-82.5 -268t-222.5 -90t-222.5 90t-82.5 268t82.5 268t222.5 90zM343 66q104 0 162.5 70t58.5 214t-58.5 214t-162.5 70t-162.5 -70t-58.5 -214t58.5 -214t162.5 -70z" glyph-name="Oacute" horiz-adv-x="686" unicode="Ó"/><glyph d="M438 760l-95 89l-96 -89h-62l90 129h135l90 -129h-62zM343 708q140 0 222.5 -90t82.5 -268t-82.5 -268t-222.5 -90t-222.5 90t-82.5 268t82.5 268t222.5 90zM343 66q104 0 162.5 70t58.5 214t-58.5 214t-162.5 70t-162.5 -70t-58.5 -214t58.5 -214t162.5 -70z" glyph-name="Ocircumflex" horiz-adv-x="686" unicode="Ô"/><glyph d="M480 880h37q0 -45 -28 -72t-71 -27q-37 0 -84 36t-76 36q-26 0 -39.5 -13t-12.5 -30h-38q0 45 28 72t71 27q37 0 84 -36t76 -36q26 0 40 13t13 30zM343 708q140 0 222.5 -90t82.5 -268t-82.5 -268t-222.5 -90t-222.5 90t-82.5 268t82.5 268t222.5 90zM343 66 q104 0 162.5 70t58.5 214t-58.5 214t-162.5 70t-162.5 -70t-58.5 -214t58.5 -214t162.5 -70z" glyph-name="Otilde" horiz-adv-x="686" unicode="Õ"/><glyph d="M196 889h81v-89h-81v89zM409 889h80v-89h-80v89zM343 708q140 0 222.5 -90t82.5 -268t-82.5 -268t-222.5 -90t-222.5 90t-82.5 268t82.5 268t222.5 90zM343 66q104 0 162.5 70t58.5 214t-58.5 214t-162.5 70t-162.5 -70t-58.5 -214t58.5 -214t162.5 -70z" glyph-name="Odieresis" horiz-adv-x="686" unicode="Ö"/><glyph d="M394 384l-125 -125l125 -125l-48 -48l-125 125l-125 -126l-51 51l125 126l-124 124l48 48l124 -124l125 125z" glyph-name="multiply" horiz-adv-x="439" unicode="×"/><glyph d="M530 651q118 -89 118 -301q0 -178 -82.5 -268t-222.5 -90q-68 0 -119 20l-29 -62h-84l47 97q-120 91 -120 303q0 178 82.5 268t222.5 90q66 0 121 -20l27 57h84zM122 350q0 -156 71 -229l238 498q-39 15 -88 15q-104 0 -162.5 -70t-58.5 -214zM343 66q104 0 162.5 70 t58.5 214q0 155 -70 227l-237 -497q36 -14 86 -14z" glyph-name="Oslash" horiz-adv-x="686" unicode="Ø"/><glyph d="M358 761l-67 128h-109l108 -128h68zM589 264q0 -128 -71.5 -199.5t-194.5 -71.5q-122 0 -193.5 71.5t-71.5 199.5v436h81v-429q0 -102 47 -153t137 -51t137.5 51.5t47.5 152.5v429h81v-436z" glyph-name="Ugrave" horiz-adv-x="647" unicode="Ù"/><glyph d="M287 761h68l108 128h-109zM589 264q0 -128 -71.5 -199.5t-194.5 -71.5q-122 0 -193.5 71.5t-71.5 199.5v436h81v-429q0 -102 47 -153t137 -51t137.5 51.5t47.5 152.5v429h81v-436z" glyph-name="Uacute" horiz-adv-x="647" unicode="Ú"/><glyph d="M416 760l-95 89l-96 -89h-62l90 129h135l90 -129h-62zM589 264q0 -128 -71.5 -199.5t-194.5 -71.5q-122 0 -193.5 71.5t-71.5 199.5v436h81v-429q0 -102 47 -153t137 -51t137.5 51.5t47.5 152.5v429h81v-436z" glyph-name="Ucircumflex" horiz-adv-x="647" unicode="Û"/><glyph d="M174 889h81v-89h-81v89zM387 889h80v-89h-80v89zM589 264q0 -128 -71.5 -199.5t-194.5 -71.5q-122 0 -193.5 71.5t-71.5 199.5v436h81v-429q0 -102 47 -153t137 -51t137.5 51.5t47.5 152.5v429h81v-436z" glyph-name="Udieresis" horiz-adv-x="647" unicode="Ü"/><glyph d="M297 761h68l108 128h-109zM372 276v-276h-82v276l-257 424h93l205 -350l205 350h93z" glyph-name="Yacute" horiz-adv-x="661" unicode="Ý"/><glyph d="M316 565q120 0 190.5 -59t70.5 -154q0 -101 -69.5 -157t-191.5 -56h-166v-139h-77v700h77v-135h166zM318 207q89 0 135.5 33t46.5 112q0 73 -48 109.5t-134 36.5h-168v-291h168z" glyph-name="Thorn" horiz-adv-x="640" unicode="Þ"/><glyph d="M391 384q71 -13 111.5 -62t40.5 -117q0 -205 -263 -205h-62v68h63q185 0 185 137q0 71 -49.5 106.5t-139.5 35.5h-59v67h59q77 0 111.5 25t34.5 85q0 109 -145 109q-76 0 -109.5 -30.5t-33.5 -98.5v-504h-77v504q0 97 55.5 146.5t162.5 49.5q102 0 163 -46.5t61 -129.5 q0 -55 -28.5 -92t-80.5 -48z" glyph-name="germandbls" horiz-adv-x="586" unicode="ß"/><glyph d="M302 581h-68l-108 128h109zM472 92q0 -22 9.5 -31t31.5 -8v-53q-16 -5 -34 -5q-77 0 -77 75v36q-7 -15 -19.5 -31t-35.5 -37t-60 -34t-81 -13q-77 0 -125 39.5t-48 112.5q0 132 180 156q153 20 182 36v11q0 67 -30.5 93t-98.5 26q-115 0 -127 -73h-74q8 66 60.5 100 t141.5 34q106 0 155.5 -45.5t49.5 -152.5v-236zM395 164v116q-27 -15 -183 -37q-54 -8 -77.5 -31.5t-23.5 -65.5q0 -43 28 -68.5t79 -25.5t92.5 24t58 45.5t26.5 42.5z" glyph-name="agrave" horiz-adv-x="540" unicode="à"/><glyph d="M407 709l-108 -128h-68l67 128h109zM472 92q0 -22 9.5 -31t31.5 -8v-53q-16 -5 -34 -5q-77 0 -77 75v36q-7 -15 -19.5 -31t-35.5 -37t-60 -34t-81 -13q-77 0 -125 39.5t-48 112.5q0 132 180 156q153 20 182 36v11q0 67 -30.5 93t-98.5 26q-115 0 -127 -73h-74 q8 66 60.5 100t141.5 34q106 0 155.5 -45.5t49.5 -152.5v-236zM395 164v116q-27 -15 -183 -37q-54 -8 -77.5 -31.5t-23.5 -65.5q0 -43 28 -68.5t79 -25.5t92.5 24t58 45.5t26.5 42.5z" glyph-name="aacute" horiz-adv-x="540" unicode="á"/><glyph d="M265 669l-96 -89h-62l90 129h135l90 -129h-62zM472 92q0 -22 9.5 -31t31.5 -8v-53q-16 -5 -34 -5q-77 0 -77 75v36q-7 -15 -19.5 -31t-35.5 -37t-60 -34t-81 -13q-77 0 -125 39.5t-48 112.5q0 132 180 156q153 20 182 36v11q0 67 -30.5 93t-98.5 26q-115 0 -127 -73h-74 q8 66 60.5 100t141.5 34q106 0 155.5 -45.5t49.5 -152.5v-236zM395 164v116q-27 -15 -183 -37q-54 -8 -77.5 -31.5t-23.5 -65.5q0 -43 28 -68.5t79 -25.5t92.5 24t58 45.5t26.5 42.5z" glyph-name="acircumflex" horiz-adv-x="540" unicode="â"/><glyph d="M180 673q-26 0 -39.5 -13t-12.5 -30h-38q0 45 28 72t71 27q37 0 84 -36t76 -36q26 0 40 13t13 30h37q0 -45 -28 -72t-71 -27q-37 0 -84 36t-76 36zM472 92q0 -22 9.5 -31t31.5 -8v-53q-16 -5 -34 -5q-77 0 -77 75v36q-7 -15 -19.5 -31t-35.5 -37t-60 -34t-81 -13 q-77 0 -125 39.5t-48 112.5q0 132 180 156q153 20 182 36v11q0 67 -30.5 93t-98.5 26q-115 0 -127 -73h-74q8 66 60.5 100t141.5 34q106 0 155.5 -45.5t49.5 -152.5v-236zM395 164v116q-27 -15 -183 -37q-54 -8 -77.5 -31.5t-23.5 -65.5q0 -43 28 -68.5t79 -25.5t92.5 24 t58 45.5t26.5 42.5z" glyph-name="atilde" horiz-adv-x="540" unicode="ã"/><glyph d="M200 709v-89h-81v89h81zM412 709v-89h-80v89h80zM472 92q0 -22 9.5 -31t31.5 -8v-53q-16 -5 -34 -5q-77 0 -77 75v36q-7 -15 -19.5 -31t-35.5 -37t-60 -34t-81 -13q-77 0 -125 39.5t-48 112.5q0 132 180 156q153 20 182 36v11q0 67 -30.5 93t-98.5 26q-115 0 -127 -73 h-74q8 66 60.5 100t141.5 34q106 0 155.5 -45.5t49.5 -152.5v-236zM395 164v116q-27 -15 -183 -37q-54 -8 -77.5 -31.5t-23.5 -65.5q0 -43 28 -68.5t79 -25.5t92.5 24t58 45.5t26.5 42.5z" glyph-name="adieresis" horiz-adv-x="540" unicode="ä"/><glyph d="M266 581q-37 0 -62 24.5t-25 59.5t25 60t62 25q35 0 59.5 -25t24.5 -60t-25 -59.5t-59 -24.5zM264 712q-19 0 -32.5 -13.5t-13.5 -33.5q0 -19 13.5 -32.5t32.5 -13.5t33 13.5t14 32.5q0 20 -13.5 33.5t-33.5 13.5zM472 92q0 -22 9.5 -31t31.5 -8v-53q-16 -5 -34 -5 q-77 0 -77 75v36q-7 -15 -19.5 -31t-35.5 -37t-60 -34t-81 -13q-77 0 -125 39.5t-48 112.5q0 132 180 156q153 20 182 36v11q0 67 -30.5 93t-98.5 26q-115 0 -127 -73h-74q8 66 60.5 100t141.5 34q106 0 155.5 -45.5t49.5 -152.5v-236zM395 164v116q-27 -15 -183 -37 q-54 -8 -77.5 -31.5t-23.5 -65.5q0 -43 28 -68.5t79 -25.5t92.5 24t58 45.5t26.5 42.5z" glyph-name="aring" horiz-adv-x="540" unicode="å"/><glyph d="M472 232q7 -88 54.5 -132.5t116.5 -44.5q89 0 133 59h76q-33 -65 -85 -94t-129 -29q-69 0 -128.5 35t-89.5 104q-27 -56 -79.5 -97.5t-134.5 -41.5q-77 0 -125 39.5t-48 112.5q0 132 180 156q153 20 182 36q0 74 -31 102t-99 28q-112 0 -126 -73h-74q8 66 60.5 100 t140.5 34q143 0 184 -88q67 88 185 88q99 0 165.5 -68t66.5 -202v-24h-395zM635 462q-65 0 -110.5 -45t-52.5 -131h319q-4 86 -47 131t-109 45zM395 168v85v6v6v15q-27 -15 -183 -37q-54 -8 -77.5 -31.5t-23.5 -65.5q0 -43 28 -68.5t79 -25.5q73 0 117.5 38.5t59.5 77.5z " glyph-name="ae" horiz-adv-x="900" unicode="æ"/><glyph d="M483 146q-39 -140 -183 -154l-43 -46q36 4 64.5 -16.5t28.5 -58.5q0 -92 -153 -92v36q91 1 91 54q0 27 -23.5 36t-52.5 -7l-13 20l-7 11l41 65q-86 12 -143 79t-57 186q0 132 70 199.5t168 67.5q166 0 210 -151h-71q-36 87 -138 87q-71 0 -117 -51.5t-46 -151.5t46 -152 t117 -52q105 0 140 91h71z" glyph-name="ccedilla" horiz-adv-x="511" unicode="ç"/><glyph d="M309 581h-68l-108 128h109zM505 256v-24h-396q7 -88 55 -132.5t117 -44.5q89 0 133 59h75q-32 -65 -84 -94t-130 -29q-98 0 -170 68.5t-72 199.5q0 129 71 198t169 69q99 0 165.5 -68t66.5 -202zM273 462q-65 0 -111 -45t-53 -131h320q-4 86 -47 131t-109 45z" glyph-name="egrave" horiz-adv-x="538" unicode="è"/><glyph d="M414 709l-108 -128h-68l67 128h109zM505 256v-24h-396q7 -88 55 -132.5t117 -44.5q89 0 133 59h75q-32 -65 -84 -94t-130 -29q-98 0 -170 68.5t-72 199.5q0 129 71 198t169 69q99 0 165.5 -68t66.5 -202zM273 462q-65 0 -111 -45t-53 -131h320q-4 86 -47 131t-109 45z " glyph-name="eacute" horiz-adv-x="538" unicode="é"/><glyph d="M272 669l-96 -89h-62l90 129h135l90 -129h-62zM505 256v-24h-396q7 -88 55 -132.5t117 -44.5q89 0 133 59h75q-32 -65 -84 -94t-130 -29q-98 0 -170 68.5t-72 199.5q0 129 71 198t169 69q99 0 165.5 -68t66.5 -202zM273 462q-65 0 -111 -45t-53 -131h320q-4 86 -47 131 t-109 45z" glyph-name="ecircumflex" horiz-adv-x="538" unicode="ê"/><glyph d="M207 709v-89h-81v89h81zM419 709v-89h-80v89h80zM505 256v-24h-396q7 -88 55 -132.5t117 -44.5q89 0 133 59h75q-32 -65 -84 -94t-130 -29q-98 0 -170 68.5t-72 199.5q0 129 71 198t169 69q99 0 165.5 -68t66.5 -202zM273 462q-65 0 -111 -45t-53 -131h320q-4 86 -47 131 t-109 45z" glyph-name="edieresis" horiz-adv-x="538" unicode="ë"/><glyph d="M131 581l-67 128h-109l108 -128h68zM56 520h77v-520h-77v520z" glyph-name="igrave" horiz-adv-x="188" unicode="ì"/><glyph d="M60 581h68l108 128h-109zM56 520h77v-520h-77v520z" glyph-name="iacute" horiz-adv-x="188" unicode="í"/><glyph d="M189 580l-95 89l-96 -89h-62l90 129h135l90 -129h-62zM56 520h77v-520h-77v520z" glyph-name="icircumflex" horiz-adv-x="188" unicode="î"/><glyph d="M-53 709h81v-89h-81v89zM160 709h80v-89h-80v89zM56 520h77v-520h-77v520z" glyph-name="idieresis" horiz-adv-x="188" unicode="ï"/><glyph d="M397 585q118 -157 118 -329q0 -127 -69 -196.5t-177 -69.5q-100 0 -168 69t-68 193q0 129 62 198.5t174 69.5q78 0 117 -39q-39 60 -65 94l-109 -13v44l78 10q-28 37 -68 84h83l60 -74l94 12v-45zM269 58q73 0 121 49.5t48 144.5q0 200 -169 200q-159 0 -159 -200 q0 -95 46 -144.5t113 -49.5z" glyph-name="eth" horiz-adv-x="570" unicode="ð"/><glyph d="M194 673q-26 0 -39.5 -13t-12.5 -30h-38q0 45 28 72t71 27q37 0 84 -36t76 -36q26 0 40 13t13 30h37q0 -45 -28 -72t-71 -27q-37 0 -84 36t-76 36zM318 525q185 0 185 -207v-318h-77v313q0 145 -128 145q-68 0 -112 -44.5t-53 -91.5v-322h-77v520h77v-120q12 40 61 82.5 t124 42.5z" glyph-name="ntilde" horiz-adv-x="559" unicode="ñ"/><glyph d="M310 581l-67 128h-109l108 -128h68zM273 526q96 0 168.5 -69t72.5 -198q0 -67 -21.5 -120t-56.5 -84.5t-77 -47.5t-86 -16q-60 0 -113 27t-90 90t-37 151q0 129 72 198t168 69zM438 259q0 100 -48 151.5t-117 51.5t-116.5 -51.5t-47.5 -151.5t47.5 -152t116.5 -52t117 52 t48 152z" glyph-name="ograve" horiz-adv-x="546" unicode="ò"/><glyph d="M239 581h68l108 128h-109zM273 526q96 0 168.5 -69t72.5 -198q0 -67 -21.5 -120t-56.5 -84.5t-77 -47.5t-86 -16q-60 0 -113 27t-90 90t-37 151q0 129 72 198t168 69zM438 259q0 100 -48 151.5t-117 51.5t-116.5 -51.5t-47.5 -151.5t47.5 -152t116.5 -52t117 52t48 152z " glyph-name="oacute" horiz-adv-x="546" unicode="ó"/><glyph d="M368 580l-95 89l-96 -89h-62l90 129h135l90 -129h-62zM273 526q96 0 168.5 -69t72.5 -198q0 -67 -21.5 -120t-56.5 -84.5t-77 -47.5t-86 -16q-60 0 -113 27t-90 90t-37 151q0 129 72 198t168 69zM438 259q0 100 -48 151.5t-117 51.5t-116.5 -51.5t-47.5 -151.5t47.5 -152 t116.5 -52t117 52t48 152z" glyph-name="ocircumflex" horiz-adv-x="546" unicode="ô"/><glyph d="M410 700h37q0 -45 -28 -72t-71 -27q-37 0 -84 36t-76 36q-26 0 -39.5 -13t-12.5 -30h-38q0 45 28 72t71 27q37 0 84 -36t76 -36q26 0 40 13t13 30zM273 526q96 0 168.5 -69t72.5 -198q0 -67 -21.5 -120t-56.5 -84.5t-77 -47.5t-86 -16q-60 0 -113 27t-90 90t-37 151 q0 129 72 198t168 69zM438 259q0 100 -48 151.5t-117 51.5t-116.5 -51.5t-47.5 -151.5t47.5 -152t116.5 -52t117 52t48 152z" glyph-name="otilde" horiz-adv-x="546" unicode="õ"/><glyph d="M127 709h81v-89h-81v89zM340 709h80v-89h-80v89zM273 526q96 0 168.5 -69t72.5 -198q0 -67 -21.5 -120t-56.5 -84.5t-77 -47.5t-86 -16q-60 0 -113 27t-90 90t-37 151q0 129 72 198t168 69zM438 259q0 100 -48 151.5t-117 51.5t-116.5 -51.5t-47.5 -151.5t47.5 -152 t116.5 -52t117 52t48 152z" glyph-name="odieresis" horiz-adv-x="546" unicode="ö"/><glyph d="M231 399q-16 0 -27 11t-11 27q0 15 11 26.5t27 11.5t27 -11.5t11 -26.5q0 -16 -11 -27t-27 -11zM47 308h367v-56h-367v56zM231 85q-16 0 -27 11t-11 27q0 15 11 26t27 11t27 -11t11 -26q0 -16 -11 -27t-27 -11z" glyph-name="divide" horiz-adv-x="459" unicode="÷"/><glyph d="M416 479q98 -74 98 -220q0 -67 -21.5 -120t-56.5 -84.5t-77 -47.5t-86 -16q-42 0 -84 15l-26 -56h-79l43 91q-94 72 -94 218q0 129 72 198t168 69q44 0 80 -14l32 66h79zM109 259q0 -100 49 -154l167 348q-26 9 -52 9q-69 0 -116.5 -51.5t-47.5 -151.5zM273 55 q69 0 117 52t48 152q0 101 -53 156l-167 -350q24 -10 55 -10z" glyph-name="oslash" horiz-adv-x="546" unicode="ø"/><glyph d="M317 581h-68l-108 128h109zM427 520h77v-520h-77v120q-13 -40 -62 -82.5t-124 -42.5q-185 0 -185 207v318h77v-313q0 -144 128 -144q68 0 111.5 44t54.5 91v322z" glyph-name="ugrave" horiz-adv-x="559" unicode="ù"/><glyph d="M422 709l-108 -128h-68l67 128h109zM427 520h77v-520h-77v120q-13 -40 -62 -82.5t-124 -42.5q-185 0 -185 207v318h77v-313q0 -144 128 -144q68 0 111.5 44t54.5 91v322z" glyph-name="uacute" horiz-adv-x="559" unicode="ú"/><glyph d="M280 669l-96 -89h-62l90 129h135l90 -129h-62zM427 520h77v-520h-77v120q-13 -40 -62 -82.5t-124 -42.5q-185 0 -185 207v318h77v-313q0 -144 128 -144q68 0 111.5 44t54.5 91v322z" glyph-name="ucircumflex" horiz-adv-x="559" unicode="û"/><glyph d="M215 709v-89h-81v89h81zM427 709v-89h-80v89h80zM427 520h77v-520h-77v120q-13 -40 -62 -82.5t-124 -42.5q-185 0 -185 207v318h77v-313q0 -144 128 -144q68 0 111.5 44t54.5 91v322z" glyph-name="udieresis" horiz-adv-x="559" unicode="ü"/><glyph d="M408 709l-108 -128h-68l67 128h109zM429 520h77l-220 -563q-33 -83 -82 -114t-122 -34v67q101 5 132 85l12 32l-203 527h76l163 -434z" glyph-name="yacute" horiz-adv-x="528" unicode="ý"/><glyph d="M526 258q-1 -131 -68 -199t-157 -68q-63 0 -108 30.5t-66 80.5v-292h-77v710v180h77v-277q12 22 23 36q53 67 150 67h1q90 0 157 -67.5t68 -196.5v-1v-1v-1v-1zM443 192q7 28 7 68q0 56 -16 101q-39 99 -146 99q-74 0 -119 -51q-46 -54 -46 -149q0 -80 34 -133 q43 -68 131 -68q57 0 99 33t56 100z" glyph-name="thorn" horiz-adv-x="587" unicode="þ"/><glyph d="M200 709v-89h-81v89h81zM412 709v-89h-80v89h80zM429 520h77l-220 -563q-33 -83 -82 -114t-122 -34v67q101 5 132 85l12 32l-203 527h76l163 -434z" glyph-name="ydieresis" horiz-adv-x="528" unicode="ÿ"/><glyph d="M500 889v-49h-305v49h305zM581 0l-71 181h-324l-72 -181h-88l286 700h71l287 -700h-89zM211 244h274l-137 349z" glyph-name="Amacron" horiz-adv-x="695" unicode="Ā"/><glyph d="M418 709v-49h-305v49h305zM472 92q0 -22 9.5 -31t31.5 -8v-53q-16 -5 -34 -5q-77 0 -77 75v36q-7 -15 -19.5 -31t-35.5 -37t-60 -34t-81 -13q-77 0 -125 39.5t-48 112.5q0 132 180 156q153 20 182 36v11q0 67 -30.5 93t-98.5 26q-115 0 -127 -73h-74q8 66 60.5 100 t141.5 34q106 0 155.5 -45.5t49.5 -152.5v-236zM395 164v116q-27 -15 -183 -37q-54 -8 -77.5 -31.5t-23.5 -65.5q0 -43 28 -68.5t79 -25.5t92.5 24t58 45.5t26.5 42.5z" glyph-name="amacron" horiz-adv-x="540" unicode="ā"/><glyph d="M348 762q-73 0 -108.5 36t-35.5 91h53q10 -73 91 -73q82 0 90 73h54q0 -55 -36 -91t-108 -36zM581 0l-71 181h-324l-72 -181h-88l286 700h71l287 -700h-89zM211 244h274l-137 349z" glyph-name="Abreve" horiz-adv-x="695" unicode="Ă"/><glyph d="M265 582q-73 0 -108.5 36t-35.5 91h53q10 -73 91 -73q82 0 90 73h54q0 -55 -36 -91t-108 -36zM472 92q0 -22 9.5 -31t31.5 -8v-53q-16 -5 -34 -5q-77 0 -77 75v36q-7 -15 -19.5 -31t-35.5 -37t-60 -34t-81 -13q-77 0 -125 39.5t-48 112.5q0 132 180 156q153 20 182 36v11 q0 67 -30.5 93t-98.5 26q-115 0 -127 -73h-74q8 66 60.5 100t141.5 34q106 0 155.5 -45.5t49.5 -152.5v-236zM395 164v116q-27 -15 -183 -37q-54 -8 -77.5 -31.5t-23.5 -65.5q0 -43 28 -68.5t79 -25.5t92.5 24t58 45.5t26.5 42.5z" glyph-name="abreve" horiz-adv-x="540" unicode="ă"/><glyph d="M639 0q-59 -20 -91 -50.5t-32 -65.5q0 -31 25 -42.5t70 -2.5v-38q-22 -10 -50 -12t-55 3.5t-45.5 26t-18.5 51.5q0 46 43 81t96 49l-71 181h-324l-72 -181h-88l286 700h71l287 -700h-31zM211 244h274l-137 349z" glyph-name="Aogonek" horiz-adv-x="695" unicode="Ą"/><glyph d="M499 -3q-56 -21 -86 -51t-30 -63q0 -31 25 -42.5t70 -2.5v-38q-22 -10 -50 -12t-55 3.5t-45.5 26t-18.5 51.5q0 46 42 80.5t96 49.5q-45 12 -45 71v36q-7 -15 -19.5 -31t-35.5 -37t-60 -34t-81 -13q-77 0 -125 39.5t-48 112.5q0 132 180 156q153 20 182 36v11 q0 67 -30.5 93t-98.5 26q-115 0 -127 -73h-74q8 66 60.5 100t141.5 34q106 0 155.5 -45.5t49.5 -152.5v-236q0 -22 9.5 -31t31.5 -8v-53q-1 0 -6.5 -1.5t-7.5 -1.5zM395 164v116q-27 -15 -183 -37q-54 -8 -77.5 -31.5t-23.5 -65.5q0 -43 28 -68.5t79 -25.5t92.5 24t58 45.5 t26.5 42.5z" glyph-name="aogonek" horiz-adv-x="540" unicode="ą"/><glyph d="M284 761h68l108 128h-109zM343 66q144 0 182 107h80q-18 -88 -88 -134.5t-175 -46.5q-139 0 -221.5 90.5t-82.5 267.5t82.5 267.5t221.5 90.5q104 0 173.5 -46.5t87.5 -133.5h-80q-38 106 -180 106q-104 0 -162.5 -70t-58.5 -214t58.5 -214t162.5 -70z" glyph-name="Cacute" horiz-adv-x="638" unicode="Ć"/><glyph d="M228 581h68l108 128h-109zM272 55q105 0 140 91h71q-43 -155 -212 -155q-98 0 -168 68t-70 200t70 199.5t168 67.5q166 0 210 -151h-71q-36 87 -138 87q-71 0 -117 -51.5t-46 -151.5t46 -152t117 -52z" glyph-name="cacute" horiz-adv-x="511" unicode="ć"/><glyph d="M278 889h81v-89h-81v89zM343 66q144 0 182 107h80q-18 -88 -88 -134.5t-175 -46.5q-139 0 -221.5 90.5t-82.5 267.5t82.5 267.5t221.5 90.5q104 0 173.5 -46.5t87.5 -133.5h-80q-38 106 -180 106q-104 0 -162.5 -70t-58.5 -214t58.5 -214t162.5 -70z" glyph-name="Cdotaccent" horiz-adv-x="638" unicode="Ċ"/><glyph d="M222 709h81v-89h-81v89zM272 55q105 0 140 91h71q-43 -155 -212 -155q-98 0 -168 68t-70 200t70 199.5t168 67.5q166 0 210 -151h-71q-36 87 -138 87q-71 0 -117 -51.5t-46 -151.5t46 -152t117 -52z" glyph-name="cdotaccent" horiz-adv-x="511" unicode="ċ"/><glyph d="M412 881h62l-90 -130h-135l-90 130h62l96 -90zM343 66q144 0 182 107h80q-18 -88 -88 -134.5t-175 -46.5q-139 0 -221.5 90.5t-82.5 267.5t82.5 267.5t221.5 90.5q104 0 173.5 -46.5t87.5 -133.5h-80q-38 106 -180 106q-104 0 -162.5 -70t-58.5 -214t58.5 -214t162.5 -70 z" glyph-name="Ccaron" horiz-adv-x="638" unicode="Č"/><glyph d="M356 701h62l-90 -130h-135l-90 130h62l96 -90zM272 55q105 0 140 91h71q-43 -155 -212 -155q-98 0 -168 68t-70 200t70 199.5t168 67.5q166 0 210 -151h-71q-36 87 -138 87q-71 0 -117 -51.5t-46 -151.5t46 -152t117 -52z" glyph-name="ccaron" horiz-adv-x="511" unicode="č"/><glyph d="M400 751h-135l-90 130h62l96 -90l95 90h62zM278 700q162 0 247 -91t85 -259t-85 -259t-247 -91h-220v700h220zM271 74q131 0 192.5 68t61.5 208t-61.5 208t-192.5 68h-132v-552h132z" glyph-name="Dcaron" horiz-adv-x="658" unicode="Ď"/><glyph d="M258 526q122 0 174 -103v277h77v-700h-77v102q-21 -50 -66 -80.5t-108 -30.5q-90 0 -157.5 69t-67.5 200q0 130 67.5 198t157.5 68zM550 572h67l109 128h-110zM270 55q70 0 118 53t48 152q0 100 -47.5 151t-118.5 51q-69 0 -115 -51t-46 -151q0 -101 46 -153t115 -52z " glyph-name="dcaron" horiz-adv-x="743" unicode="ď"/><glyph d="M348 700q162 0 247 -91t85 -259t-85 -259t-247 -91h-220v320h-55v56h55v324h220zM341 74q131 0 193 68t62 208t-62 208t-193 68h-131v-250h202v-56h-202v-246h131z" glyph-name="Dcroat" horiz-adv-x="760" unicode="Đ"/><glyph d="M605 645v-49h-96v-596h-77v102q-21 -50 -66 -80.5t-108 -30.5q-90 0 -157.5 69t-67.5 200q0 130 67.5 198t157.5 68q122 0 174 -103v173h-132v49h132v55h77v-55h96zM270 55q70 0 118 53t48 152q0 100 -47.5 151t-118.5 51q-69 0 -115 -51t-46 -151q0 -101 46 -153 t115 -52z" glyph-name="dcroat" horiz-adv-x="623" unicode="đ"/><glyph d="M441 889v-49h-305v49h305zM139 74h371v-74h-452v700h442v-74h-361v-231h301v-70h-301v-251z" glyph-name="Emacron" horiz-adv-x="547" unicode="Ē"/><glyph d="M425 709v-49h-305v49h305zM505 256v-24h-396q7 -88 55 -132.5t117 -44.5q89 0 133 59h75q-32 -65 -84 -94t-130 -29q-98 0 -170 68.5t-72 199.5q0 129 71 198t169 69q99 0 165.5 -68t66.5 -202zM273 462q-65 0 -111 -45t-53 -131h320q-4 86 -47 131t-109 45z" glyph-name="emacron" horiz-adv-x="538" unicode="ē"/><glyph d="M329 889v-89h-81v89h81zM139 74h371v-74h-452v700h442v-74h-361v-231h301v-70h-301v-251z" glyph-name="Edotaccent" horiz-adv-x="547" unicode="Ė"/><glyph d="M313 709v-89h-81v89h81zM505 256v-24h-396q7 -88 55 -132.5t117 -44.5q89 0 133 59h75q-32 -65 -84 -94t-130 -29q-98 0 -170 68.5t-72 199.5q0 129 71 198t169 69q99 0 165.5 -68t66.5 -202zM273 462q-65 0 -111 -45t-53 -131h320q-4 86 -47 131t-109 45z" glyph-name="edotaccent" horiz-adv-x="538" unicode="ė"/><glyph d="M139 74h371v-74h-4q-59 -20 -91 -50.5t-32 -65.5q0 -31 25 -42.5t70 -2.5v-38q-22 -10 -50 -12t-55 3.5t-45.5 26t-18.5 51.5q0 46 43 81t96 49h-390v700h442v-74h-361v-231h301v-70h-301v-251z" glyph-name="Eogonek" horiz-adv-x="547" unicode="Ę"/><glyph d="M505 256v-24h-396q7 -88 55 -132.5t117 -44.5q89 0 133 59h75q-54 -107 -172 -121q-54 -20 -83 -49.5t-29 -62.5q0 -31 25 -42.5t70 -2.5v-38q-22 -10 -50 -12t-55 3.5t-45.5 26t-18.5 51.5q0 42 36.5 75t85.5 50q-92 8 -156 76t-64 191q0 129 71 198t169 69 q99 0 165.5 -68t66.5 -202zM273 462q-65 0 -111 -45t-53 -131h320q-4 86 -47 131t-109 45z" glyph-name="eogonek" horiz-adv-x="538" unicode="ę"/><glyph d="M355 751h-135l-90 130h62l96 -90l95 90h62zM139 74h371v-74h-452v700h442v-74h-361v-231h301v-70h-301v-251z" glyph-name="Ecaron" horiz-adv-x="547" unicode="Ě"/><glyph d="M338 571h-135l-90 130h62l96 -90l95 90h62zM505 256v-24h-396q7 -88 55 -132.5t117 -44.5q89 0 133 59h75q-32 -65 -84 -94t-130 -29q-98 0 -170 68.5t-72 199.5q0 129 71 198t169 69q99 0 165.5 -68t66.5 -202zM273 462q-65 0 -111 -45t-53 -131h320q-4 86 -47 131 t-109 45z" glyph-name="ecaron" horiz-adv-x="538" unicode="ě"/><glyph d="M334 762q-73 0 -108.5 36t-35.5 91h53q10 -73 91 -73q82 0 90 73h54q0 -55 -36 -91t-108 -36zM633 352q9 -184 -63 -272t-227 -88q-141 0 -223 90t-82 268q0 179 82 268.5t223 89.5q102 0 171.5 -44.5t88.5 -123.5h-77q-44 94 -183 94q-105 0 -163 -70t-58 -214t58 -214 t163 -70q108 0 160 52t56 168h-161v66h222h13z" glyph-name="Gbreve" horiz-adv-x="667" unicode="Ğ"/><glyph d="M281 582q-73 0 -108.5 36t-35.5 91h53q10 -73 91 -73q82 0 90 73h54q0 -55 -36 -91t-108 -36zM432 520h77v-514v-6q-4 -220 -246 -220q-70 0 -125 27t-81 73l51 31q45 -66 155 -66q84 0 126.5 36.5t42.5 124.5v96q-21 -47 -66 -75.5t-108 -28.5q-90 0 -157.5 67 t-67.5 195q0 130 67.5 198t157.5 68q122 0 174 -103v97zM270 64q71 0 118.5 48.5t47.5 147.5q0 100 -47.5 150t-118.5 50q-69 0 -115 -50t-46 -150q0 -98 46 -147t115 -49z" glyph-name="gbreve" unicode="ğ"/><glyph d="M375 889v-89h-81v89h81zM633 352q9 -184 -63 -272t-227 -88q-141 0 -223 90t-82 268q0 179 82 268.5t223 89.5q102 0 171.5 -44.5t88.5 -123.5h-77q-44 94 -183 94q-105 0 -163 -70t-58 -214t58 -214t163 -70q108 0 160 52t56 168h-161v66h222h13z" glyph-name="Gdotaccent" horiz-adv-x="667" unicode="Ġ"/><glyph d="M322 709v-89h-81v89h81zM432 520h77v-514v-6q-4 -220 -246 -220q-70 0 -125 27t-81 73l51 31q45 -66 155 -66q84 0 126.5 36.5t42.5 124.5v96q-21 -47 -66 -75.5t-108 -28.5q-90 0 -157.5 67t-67.5 195q0 130 67.5 198t157.5 68q122 0 174 -103v97zM270 64 q71 0 118.5 48.5t47.5 147.5q0 100 -47.5 150t-118.5 50q-69 0 -115 -50t-46 -150q0 -98 46 -147t115 -49z" glyph-name="gdotaccent" unicode="ġ"/><glyph d="M633 352q9 -184 -63 -272t-227 -88q-141 0 -223 90t-82 268q0 179 82 268.5t223 89.5q102 0 171.5 -44.5t88.5 -123.5h-77q-44 94 -183 94q-105 0 -163 -70t-58 -214t58 -214t163 -70q108 0 160 52t56 168h-161v66h222h13zM274 -158v97h100v-124q0 -111 -100 -117v26 q20 11 26.5 30.5t6.5 57.5v30h-33z" glyph-name="Gcommaaccent" horiz-adv-x="667" unicode="Ģ"/><glyph d="M344 678v-97h-101v124q0 111 100 117v-26q-20 -11 -26.5 -30.5t-6.5 -57.5v-30h34zM432 520h77v-514v-6q-4 -220 -246 -220q-70 0 -125 27t-81 73l51 31q45 -66 155 -66q84 0 126.5 36.5t42.5 124.5v96q-21 -47 -66 -75.5t-108 -28.5q-90 0 -157.5 67t-67.5 195 q0 130 67.5 198t157.5 68q122 0 174 -103v97zM270 64q71 0 118.5 48.5t47.5 147.5q0 100 -47.5 150t-118.5 50q-69 0 -115 -50t-46 -150q0 -98 46 -147t115 -49z" glyph-name="gcommaaccent" unicode="ģ"/><glyph d="M509 700h82v-700h-82v309h-370v-309h-81v700h81v-162h370v162zM139 376h370v100h-370v-100z" glyph-name="Hbar" horiz-adv-x="649" unicode="Ħ"/><glyph d="M343 525q186 0 186 -207v-318h-77v313q0 144 -128 144q-69 0 -113 -44t-53 -91v-322h-77v559h-63v55h63v86h77v-86h118v-55h-118v-159q5 16 18.5 35.5t35.5 40.5t56.5 35t74.5 14z" glyph-name="hbar" horiz-adv-x="584" unicode="ħ"/><glyph d="M-54 889h305v-49h-305v49zM139 0h-81v700h81v-700z" glyph-name="Imacron" horiz-adv-x="197" unicode="Ī"/><glyph d="M-58 709h305v-49h-305v49zM56 520h77v-520h-77v520z" glyph-name="imacron" horiz-adv-x="188" unicode="ī"/><glyph d="M58 700h81v-700h-1q-59 -20 -91 -50.5t-32 -65.5q0 -31 25 -42.5t70 -2.5v-38q-22 -10 -50 -12t-55 3.5t-45.5 26t-18.5 51.5q0 46 43 81t96 49h-22v700z" glyph-name="Iogonek" horiz-adv-x="197" unicode="Į"/><glyph d="M54 709h81v-89h-81v89zM56 0v520h77v-520h-1q-59 -20 -91 -50.5t-32 -65.5q0 -31 25 -42.5t70 -2.5v-38q-22 -10 -50 -12t-55 3.5t-45.5 26t-18.5 51.5q0 46 43 81t96 49h-18z" glyph-name="iogonek" horiz-adv-x="188" unicode="į"/><glyph d="M59 889h81v-89h-81v89zM139 0h-81v700h81v-700z" glyph-name="Idotaccent" horiz-adv-x="197" unicode="İ"/><glyph d="M56 520h77v-520h-77v520z" glyph-name="dotlessi" horiz-adv-x="188" unicode="ı"/><glyph d="M139 0h-81v700h81v-700zM281 127q53 -64 141 -64q72 0 112 46.5t40 165.5v425h82v-435q0 -141 -65.5 -206.5t-168.5 -65.5q-121 0 -192 82z" glyph-name="IJ" horiz-adv-x="714" unicode="Ĳ"/><glyph d="M58 700h77v-75h-77v75zM267 700h77v-72h-77v72zM58 520h77v-520h-77v520zM125 -121q56 -25 89 -25q53 0 53 84v582h77v-596q0 -144 -124 -144q-46 0 -95 26v73z" glyph-name="ij" horiz-adv-x="396" unicode="ĳ"/><glyph d="M305 368l325 -368h-95l-275 317l-121 -135v-182h-81v700h81v-414l367 414h96zM282 -158v97h100v-124q0 -111 -100 -117v26q20 11 26.5 30.5t6.5 57.5v30h-33z" glyph-name="Kcommaaccent" horiz-adv-x="665" unicode="Ķ"/><glyph d="M261 286l261 -286h-92l-220 233l-77 -80v-153h-77v167v533h77v-453l263 273h93zM213 -158v97h100v-124q0 -111 -100 -117v26q20 11 26.5 30.5t6.5 57.5v30h-33z" glyph-name="kcommaaccent" horiz-adv-x="544" unicode="ķ"/><glyph d="M259 887l-109 -128h-67l66 128h110zM144 74h327v-74h-408v700h81v-626z" glyph-name="Lacute" horiz-adv-x="514" unicode="Ĺ"/><glyph d="M62 761h68l108 128h-109zM58 700h77v-700h-77v700z" glyph-name="lacute" horiz-adv-x="193" unicode="ĺ"/><glyph d="M144 74h327v-74h-408v700h81v-626zM233 -158v97h100v-124q0 -111 -100 -117v26q20 11 26.5 30.5t6.5 57.5v30h-33z" glyph-name="Lcommaaccent" horiz-adv-x="514" unicode="Ļ"/><glyph d="M58 700h77v-700h-77v700zM36 -302v26q20 11 26.5 30.5t6.5 57.5v30h-33v97h100v-124q0 -111 -100 -117z" glyph-name="lcommaaccent" horiz-adv-x="193" unicode="ļ"/><glyph d="M144 74h327v-74h-408v700h81v-626zM395 577q0 -112 -100 -118v26q20 11 26.5 30.5t6.5 57.5v30h-33v97h100v-123z" glyph-name="Lcaron" horiz-adv-x="514" unicode="Ľ"/><glyph d="M55 700h77v-700h-77v700zM217 459v26q20 11 26.5 30.5t6.5 57.5v30h-33v97h100v-123q0 -112 -100 -118z" glyph-name="lcaron" horiz-adv-x="413" unicode="ľ"/><glyph d="M186 74h327v-74h-409v249l-76 -81v81l76 81v370h82v-284l109 115h1v-80l-110 -116v-261z" glyph-name="Lslash" horiz-adv-x="556" unicode="Ł"/><glyph d="M289 534v-88l-102 -107v-339h-77v258l-82 -87v89l82 86v354h77v-273l101 107h1z" glyph-name="lslash" horiz-adv-x="317" unicode="ł"/><glyph d="M291 761h68l108 128h-109zM591 700v-700h-87l-365 569v-569h-81v700h85l366 -570v570h82z" glyph-name="Nacute" horiz-adv-x="649" unicode="Ń"/><glyph d="M421 709l-108 -128h-68l67 128h109zM318 525q185 0 185 -207v-318h-77v313q0 145 -128 145q-68 0 -112 -44.5t-53 -91.5v-322h-77v520h77v-120q12 40 61 82.5t124 42.5z" glyph-name="nacute" horiz-adv-x="559" unicode="ń"/><glyph d="M591 700v-700h-87l-365 569v-569h-81v700h85l366 -570v570h82zM265 -302v26q20 11 26.5 30.5t6.5 57.5v30h-33v97h100v-124q0 -111 -100 -117z" glyph-name="Ncommaaccent" horiz-adv-x="649" unicode="Ņ"/><glyph d="M318 525q185 0 185 -207v-318h-77v313q0 145 -128 145q-68 0 -112 -44.5t-53 -91.5v-322h-77v520h77v-120q12 40 61 82.5t124 42.5zM219 -158v97h100v-124q0 -111 -100 -117v26q20 11 26.5 30.5t6.5 57.5v30h-33z" glyph-name="ncommaaccent" horiz-adv-x="559" unicode="ņ"/><glyph d="M419 881h62l-90 -130h-135l-90 130h62l96 -90zM591 700v-700h-87l-365 569v-569h-81v700h85l366 -570v570h82z" glyph-name="Ncaron" horiz-adv-x="649" unicode="Ň"/><glyph d="M345 571h-135l-90 130h62l96 -90l95 90h62zM318 525q185 0 185 -207v-318h-77v313q0 145 -128 145q-68 0 -112 -44.5t-53 -91.5v-322h-77v520h77v-120q12 40 61 82.5t124 42.5z" glyph-name="ncaron" horiz-adv-x="559" unicode="ň"/><glyph d="M191 889h305v-49h-305v49zM343 708q140 0 222.5 -90t82.5 -268t-82.5 -268t-222.5 -90t-222.5 90t-82.5 268t82.5 268t222.5 90zM343 66q104 0 162.5 70t58.5 214t-58.5 214t-162.5 70t-162.5 -70t-58.5 -214t58.5 -214t162.5 -70z" glyph-name="Omacron" horiz-adv-x="686" unicode="Ō"/><glyph d="M121 709h305v-49h-305v49zM273 526q96 0 168.5 -69t72.5 -198q0 -67 -21.5 -120t-56.5 -84.5t-77 -47.5t-86 -16q-60 0 -113 27t-90 90t-37 151q0 129 72 198t168 69zM438 259q0 100 -48 151.5t-117 51.5t-116.5 -51.5t-47.5 -151.5t47.5 -152t116.5 -52t117 52t48 152z " glyph-name="omacron" horiz-adv-x="546" unicode="ō"/><glyph d="M216 761h68l108 128h-109zM379 761h68l108 128h-109zM343 708q140 0 222.5 -90t82.5 -268t-82.5 -268t-222.5 -90t-222.5 90t-82.5 268t82.5 268t222.5 90zM343 66q104 0 162.5 70t58.5 214t-58.5 214t-162.5 70t-162.5 -70t-58.5 -214t58.5 -214t162.5 -70z" glyph-name="Ohungarumlaut" horiz-adv-x="686" unicode="Ő"/><glyph d="M146 581h68l108 128h-109zM309 581h68l108 128h-109zM273 526q96 0 168.5 -69t72.5 -198q0 -67 -21.5 -120t-56.5 -84.5t-77 -47.5t-86 -16q-60 0 -113 27t-90 90t-37 151q0 129 72 198t168 69zM438 259q0 100 -48 151.5t-117 51.5t-116.5 -51.5t-47.5 -151.5t47.5 -152 t116.5 -52t117 52t48 152z" glyph-name="ohungarumlaut" horiz-adv-x="546" unicode="ő"/><glyph d="M648 74h370v-74h-452v82q-80 -90 -223 -90q-140 0 -222.5 90t-82.5 268t82.5 268t222.5 90q143 0 223 -90v82h442v-74h-360v-231h300v-70h-300v-251zM343 66q104 0 162.5 70t58.5 214t-58.5 214t-162.5 70t-162.5 -70t-58.5 -214t58.5 -214t162.5 -70z" glyph-name="OE" horiz-adv-x="1052" unicode="Œ"/><glyph d="M910 256v-24h-396q7 -88 55 -132.5t117 -44.5q89 0 133 59h75q-32 -65 -84 -94t-130 -29q-62 0 -117 29t-88 85q-33 -56 -87.5 -85t-114.5 -29t-113 27t-90 90t-37 151q0 129 72 198t168 69q60 0 114.5 -29t87.5 -85q32 56 86.5 85t115.5 29q99 0 166 -68t67 -202z M677 462q-64 0 -110 -45.5t-53 -130.5h320q-4 86 -47.5 131t-109.5 45zM273 55q69 0 117 52t48 152t-48 151.5t-117 51.5t-116.5 -51.5t-47.5 -151.5t47.5 -152t116.5 -52z" glyph-name="oe" horiz-adv-x="943" unicode="œ"/><glyph d="M445 889l-108 -128h-68l67 128h109zM569 117q0 -90 20 -117h-86q-20 27 -20 117v56q0 64 -32.5 89t-88.5 25h-223v-287h-81v700h273q237 0 237 -205q0 -122 -111 -170q59 -16 85.5 -52t26.5 -98v-58zM345 354q138 0 138 140q0 70 -36.5 101.5t-116.5 31.5h-191v-273h206z " glyph-name="Racute" horiz-adv-x="621" unicode="Ŕ"/><glyph d="M329 709l-108 -128h-68l67 128h109zM310 525q10 0 38 -2v-68q-13 1 -35 1q-75 -1 -121.5 -41t-61.5 -111v-304h-77v520h77v-129q13 57 61 95.5t119 38.5z" glyph-name="racute" horiz-adv-x="371" unicode="ŕ"/><glyph d="M569 117q0 -90 20 -117h-86q-20 27 -20 117v56q0 64 -32.5 89t-88.5 25h-223v-287h-81v700h273q237 0 237 -205q0 -122 -111 -170q59 -16 85.5 -52t26.5 -98v-58zM345 354q138 0 138 140q0 70 -36.5 101.5t-116.5 31.5h-191v-273h206zM242 -158v97h100v-124 q0 -111 -100 -117v26q20 11 26.5 30.5t6.5 57.5v30h-33z" glyph-name="Rcommaaccent" horiz-adv-x="621" unicode="Ŗ"/><glyph d="M310 525q10 0 38 -2v-68q-13 1 -35 1q-75 -1 -121.5 -41t-61.5 -111v-304h-77v520h77v-129q13 57 61 95.5t119 38.5zM75 -158v97h100v-124q0 -111 -100 -117v26q20 11 26.5 30.5t6.5 57.5v30h-33z" glyph-name="rcommaaccent" horiz-adv-x="371" unicode="ŗ"/><glyph d="M369 751h-135l-90 130h62l96 -90l95 90h62zM569 117q0 -90 20 -117h-86q-20 27 -20 117v56q0 64 -32.5 89t-88.5 25h-223v-287h-81v700h273q237 0 237 -205q0 -122 -111 -170q59 -16 85.5 -52t26.5 -98v-58zM345 354q138 0 138 140q0 70 -36.5 101.5t-116.5 31.5h-191 v-273h206z" glyph-name="Rcaron" horiz-adv-x="621" unicode="Ř"/><glyph d="M253 571h-135l-90 130h62l96 -90l95 90h62zM310 525q10 0 38 -2v-68q-13 1 -35 1q-75 -1 -121.5 -41t-61.5 -111v-304h-77v520h77v-129q13 57 61 95.5t119 38.5z" glyph-name="rcaron" horiz-adv-x="371" unicode="ř"/><glyph d="M264 761h68l108 128h-109zM355 387q104 -22 157.5 -68.5t53.5 -132.5q0 -92 -69.5 -143t-191.5 -51q-121 0 -186.5 55t-75.5 150h84q21 -134 178 -134q177 0 177 123q0 104 -134 132l-101 21q-186 40 -186 186q0 82 62 132.5t176 50.5q110 0 171 -47t72 -132h-83 q-17 108 -160 108q-80 0 -117 -31.5t-37 -81.5q0 -93 117 -117z" glyph-name="Sacute" horiz-adv-x="608" unicode="Ś"/><glyph d="M210 581h68l108 128h-109zM368 390q-15 42 -45.5 59.5t-80.5 17.5q-115 0 -115 -81q0 -35 20.5 -54t69.5 -31l82 -20q84 -20 120.5 -47t36.5 -93q0 -77 -59 -112.5t-151 -35.5q-90 0 -146.5 37.5t-66.5 115.5h71q20 -94 142 -94q59 0 95 21.5t36 67.5q0 38 -21.5 55.5 t-70.5 28.5l-92 22q-74 18 -109 50.5t-35 88.5q0 67 51 103.5t141 36.5q164 0 198 -136h-71z" glyph-name="sacute" horiz-adv-x="488" unicode="ś"/><glyph d="M566 186q0 -87 -62.5 -137.5t-173.5 -55.5l-43 -47q36 4 64.5 -16.5t28.5 -58.5q0 -92 -153 -92v36q91 1 91 54q0 27 -23.5 36t-52.5 -7l-13 20l-7 11l41 65q-101 9 -156 62.5t-64 140.5h84q21 -134 178 -134q177 0 177 123q0 104 -134 132l-101 21q-186 40 -186 186 q0 82 62 132.5t176 50.5q110 0 171 -47t72 -132h-83q-17 108 -160 108q-80 0 -117 -31.5t-37 -81.5q0 -93 117 -117l93 -20q104 -22 157.5 -68.5t53.5 -132.5z" glyph-name="Scedilla" horiz-adv-x="608" unicode="Ş"/><glyph d="M456 141q0 -70 -50 -105.5t-131 -41.5l-44 -48q36 4 64.5 -16.5t28.5 -58.5q0 -92 -153 -92v36q91 1 91 54q0 27 -23.5 36t-52.5 -7l-13 20l-7 11l42 66q-158 15 -175 151h71q20 -94 142 -94q59 0 95 21.5t36 67.5q0 38 -21.5 55.5t-70.5 28.5l-92 22q-74 18 -109 50.5 t-35 88.5q0 67 51 103.5t141 36.5q164 0 198 -136h-71q-15 42 -45.5 59.5t-80.5 17.5q-115 0 -115 -81q0 -35 20.5 -54t69.5 -31l82 -20q84 -20 120.5 -47t36.5 -93z" glyph-name="scedilla" horiz-adv-x="488" unicode="ş"/><glyph d="M392 881h62l-90 -130h-135l-90 130h62l96 -90zM355 387q104 -22 157.5 -68.5t53.5 -132.5q0 -92 -69.5 -143t-191.5 -51q-121 0 -186.5 55t-75.5 150h84q21 -134 178 -134q177 0 177 123q0 104 -134 132l-101 21q-186 40 -186 186q0 82 62 132.5t176 50.5q110 0 171 -47 t72 -132h-83q-17 108 -160 108q-80 0 -117 -31.5t-37 -81.5q0 -93 117 -117z" glyph-name="Scaron" horiz-adv-x="608" unicode="Š"/><glyph d="M338 701h62l-90 -130h-135l-90 130h62l96 -90zM368 390q-15 42 -45.5 59.5t-80.5 17.5q-115 0 -115 -81q0 -35 20.5 -54t69.5 -31l82 -20q84 -20 120.5 -47t36.5 -93q0 -77 -59 -112.5t-151 -35.5q-90 0 -146.5 37.5t-66.5 115.5h71q20 -94 142 -94q59 0 95 21.5t36 67.5 q0 38 -21.5 55.5t-70.5 28.5l-92 22q-74 18 -109 50.5t-35 88.5q0 67 51 103.5t141 36.5q164 0 198 -136h-71z" glyph-name="scaron" horiz-adv-x="488" unicode="š"/><glyph d="M319 0h-4l-50 -54q36 4 64.5 -16.5t28.5 -58.5q0 -92 -153 -92v36q91 1 91 54q0 27 -23.5 36t-52.5 -7l-13 20l-7 11l45 71h-8v627h-199v73h281h200v-73h-200v-627z" glyph-name="Tcommaaccent" horiz-adv-x="557" unicode="Ţ"/><glyph d="M281 5q-18 -7 -51 -10l-46 -49q36 4 64.5 -16.5t28.5 -58.5q0 -92 -153 -92v36q91 1 91 54q0 27 -23.5 36t-52.5 -7l-13 20l-7 11l44 68q-68 16 -68 101v358h-75v64h75v130h77v-130h100v-64h-100v-355q0 -22 10 -31.5t34 -9.5q27 0 65 7v-62z" glyph-name="tcommaaccent" horiz-adv-x="314" unicode="ţ"/><glyph d="M344 751h-135l-90 130h62l96 -90l95 90h62zM519 700v-73h-200v-627h-82v627h-199v73h281h200z" glyph-name="Tcaron" horiz-adv-x="557" unicode="Ť"/><glyph d="M388 700l-108 -128h-68l66 128h110zM172 101q0 -22 10 -31.5t34 -9.5q27 0 65 7v-62q-30 -11 -84 -11q-48 0 -75 23t-27 81v358h-75v64h75v130h77v-130h100v-64h-100v-355z" glyph-name="tcaron" horiz-adv-x="406" unicode="ť"/><glyph d="M519 627h-200v-98h112v-49h-112v-480h-82v480h-111v49h111v98h-199v73h281h200v-73z" glyph-name="Tbar" horiz-adv-x="557" unicode="Ŧ"/><glyph d="M216 60q27 0 65 7v-62q-30 -11 -84 -11q-48 0 -75 23t-27 81v214h-77v63h77v81h-75v64h75v130h77v-130h100v-64h-100v-81h98v-63h-98v-211q0 -22 10 -31.5t34 -9.5z" glyph-name="tbar" horiz-adv-x="312" unicode="ŧ"/><glyph d="M168 889h305v-49h-305v49zM589 264q0 -128 -71.5 -199.5t-194.5 -71.5q-122 0 -193.5 71.5t-71.5 199.5v436h81v-429q0 -102 47 -153t137 -51t137.5 51.5t47.5 152.5v429h81v-436z" glyph-name="Umacron" horiz-adv-x="647" unicode="Ū"/><glyph d="M433 709v-49h-305v49h305zM427 520h77v-520h-77v120q-13 -40 -62 -82.5t-124 -42.5q-185 0 -185 207v318h77v-313q0 -144 128 -144q68 0 111.5 44t54.5 91v322z" glyph-name="umacron" horiz-adv-x="559" unicode="ū"/><glyph d="M411 889h54q0 -55 -36 -91t-108 -36q-73 0 -108.5 36t-35.5 91h53q10 -73 91 -73q82 0 90 73zM589 264q0 -128 -71.5 -199.5t-194.5 -71.5q-122 0 -193.5 71.5t-71.5 199.5v436h81v-429q0 -102 47 -153t137 -51t137.5 51.5t47.5 152.5v429h81v-436z" glyph-name="Ubreve" horiz-adv-x="647" unicode="Ŭ"/><glyph d="M280 582q-73 0 -108.5 36t-35.5 91h53q10 -73 91 -73q82 0 90 73h54q0 -55 -36 -91t-108 -36zM427 520h77v-520h-77v120q-13 -40 -62 -82.5t-124 -42.5q-185 0 -185 207v318h77v-313q0 -144 128 -144q68 0 111.5 44t54.5 91v322z" glyph-name="ubreve" horiz-adv-x="559" unicode="ŭ"/><glyph d="M322 761q-37 0 -62 24.5t-25 59.5t25 60t62 25q35 0 59.5 -25t24.5 -60t-25 -59.5t-59 -24.5zM320 799q19 0 33 13.5t14 32.5q0 20 -13.5 33.5t-33.5 13.5q-19 0 -32.5 -13.5t-13.5 -33.5q0 -19 13.5 -32.5t32.5 -13.5zM589 264q0 -128 -71.5 -199.5t-194.5 -71.5 q-122 0 -193.5 71.5t-71.5 199.5v436h81v-429q0 -102 47 -153t137 -51t137.5 51.5t47.5 152.5v429h81v-436z" glyph-name="Uring" horiz-adv-x="647" unicode="Ů"/><glyph d="M281 581q-37 0 -62 24.5t-25 59.5t25 60t62 25q35 0 59.5 -25t24.5 -60t-24.5 -59.5t-59.5 -24.5zM279 712q-19 0 -32.5 -13.5t-13.5 -33.5q0 -19 13.5 -32.5t32.5 -13.5t33 13.5t14 32.5q0 20 -13.5 33.5t-33.5 13.5zM427 520h77v-520h-77v120q-13 -40 -62 -82.5 t-124 -42.5q-185 0 -185 207v318h77v-313q0 -144 128 -144q68 0 111.5 44t54.5 91v322z" glyph-name="uring" horiz-adv-x="559" unicode="ů"/><glyph d="M194 761h68l108 128h-109zM357 761h68l108 128h-109zM589 264q0 -128 -71.5 -199.5t-194.5 -71.5q-122 0 -193.5 71.5t-71.5 199.5v436h81v-429q0 -102 47 -153t137 -51t137.5 51.5t47.5 152.5v429h81v-436z" glyph-name="Uhungarumlaut" horiz-adv-x="647" unicode="Ű"/><glyph d="M329 709l-108 -128h-68l67 128h109zM384 581h-68l67 128h109zM427 520h77v-520h-77v120q-13 -40 -62 -82.5t-124 -42.5q-185 0 -185 207v318h77v-313q0 -144 128 -144q68 0 111.5 44t54.5 91v322z" glyph-name="uhungarumlaut" horiz-adv-x="559" unicode="ű"/><glyph d="M508 700h81v-436q0 -108 -52 -177t-145 -87q-59 -20 -90.5 -50.5t-31.5 -65.5q0 -31 25 -42.5t70 -2.5v-38q-22 -10 -50 -12t-55 3.5t-45.5 26t-18.5 51.5q0 41 34.5 73.5t82.5 49.5q-118 3 -186.5 74.5t-68.5 196.5v436h81v-429q0 -102 47 -153t137 -51t137.5 51.5 t47.5 152.5v429z" glyph-name="Uogonek" horiz-adv-x="647" unicode="Ų"/><glyph d="M427 520h77v-520h-19q-60 -20 -92 -50.5t-32 -65.5q0 -31 25.5 -42.5t69.5 -2.5v-38q-22 -10 -50 -12t-55 3.5t-45 26t-18 51.5q0 46 42.5 81t95.5 49h1v120q-13 -40 -62 -82.5t-124 -42.5q-185 0 -185 207v318h77v-313q0 -144 128 -144q68 0 111.5 44t54.5 91v322z" glyph-name="uogonek" horiz-adv-x="559" unicode="ų"/><glyph d="M598 760l-95 89l-96 -89h-62l90 129h135l90 -129h-62zM890 700h84l-203 -700h-76l-192 585l-191 -585h-76l-203 700h84l161 -581l184 581h83l183 -581z" glyph-name="Wcircumflex" horiz-adv-x="1007" unicode="Ŵ"/><glyph d="M497 580l-95 89l-96 -89h-62l90 129h135l90 -129h-62zM780 520l-155 -520h-72l-152 425l-152 -425h-71l-155 520h78l120 -425l149 425h63l148 -425l121 425h78z" glyph-name="wcircumflex" horiz-adv-x="803" unicode="ŵ"/><glyph d="M426 760l-95 89l-96 -89h-62l90 129h135l90 -129h-62zM372 276v-276h-82v276l-257 424h93l205 -350l205 350h93z" glyph-name="Ycircumflex" horiz-adv-x="661" unicode="Ŷ"/><glyph d="M266 669l-96 -89h-62l90 129h135l90 -129h-62zM429 520h77l-220 -563q-33 -83 -82 -114t-122 -34v67q101 5 132 85l12 32l-203 527h76l163 -434z" glyph-name="ycircumflex" horiz-adv-x="528" unicode="ŷ"/><glyph d="M184 889h81v-89h-81v89zM397 889h80v-89h-80v89zM372 276v-276h-82v276l-257 424h93l205 -350l205 350h93z" glyph-name="Ydieresis" horiz-adv-x="661" unicode="Ÿ"/><glyph d="M267 761h68l108 128h-109zM557 73v-73h-512v73l419 554h-412v73h496v-73l-419 -554h428z" glyph-name="Zacute" horiz-adv-x="602" unicode="Ź"/><glyph d="M215 581h68l108 128h-109zM134 66h326v-66h-417v66l325 388h-315v66h407v-66z" glyph-name="zacute" horiz-adv-x="502" unicode="ź"/><glyph d="M261 889h81v-89h-81v89zM557 73v-73h-512v73l419 554h-412v73h496v-73l-419 -554h428z" glyph-name="Zdotaccent" horiz-adv-x="602" unicode="Ż"/><glyph d="M209 709h81v-89h-81v89zM134 66h326v-66h-417v66l325 388h-315v66h407v-66z" glyph-name="zdotaccent" horiz-adv-x="502" unicode="ż"/><glyph d="M395 881h62l-90 -130h-135l-90 130h62l96 -90zM557 73v-73h-512v73l419 554h-412v73h496v-73l-419 -554h428z" glyph-name="Zcaron" horiz-adv-x="602" unicode="Ž"/><glyph d="M343 701h62l-90 -130h-135l-90 130h62l96 -90zM134 66h326v-66h-417v66l325 388h-315v66h407v-66z" glyph-name="zcaron" horiz-adv-x="502" unicode="ž"/><glyph d="M264 636q-46 0 -66 -23.5t-20 -81.5v-103h86v-68h-86v-387q0 -90 -42.5 -126.5t-120.5 -36.5v67q46 0 66 23.5t20 82.5v377h-79v68h79v113q0 90 42.5 126.5t120.5 36.5v-68z" glyph-name="florin" horiz-adv-x="294" unicode="ƒ"/><glyph d="M414 751h-135l-90 130h62l96 -90l95 90h62zM581 0l-71 181h-324l-72 -181h-88l286 700h71l287 -700h-89zM211 244h274l-137 349z" glyph-name="uni01CD" horiz-adv-x="695" unicode="Ǎ"/><glyph d="M331 571h-135l-90 130h62l96 -90l95 90h62zM472 92q0 -22 9.5 -31t31.5 -8v-53q-16 -5 -34 -5q-77 0 -77 75v36q-7 -15 -19.5 -31t-35.5 -37t-60 -34t-81 -13q-77 0 -125 39.5t-48 112.5q0 132 180 156q153 20 182 36v11q0 67 -30.5 93t-98.5 26q-115 0 -127 -73h-74 q8 66 60.5 100t141.5 34q106 0 155.5 -45.5t49.5 -152.5v-236zM395 164v116q-27 -15 -183 -37q-54 -8 -77.5 -31.5t-23.5 -65.5q0 -43 28 -68.5t79 -25.5t92.5 24t58 45.5t26.5 42.5z" glyph-name="uni01CE" horiz-adv-x="540" unicode="ǎ"/><glyph d="M193 881h62l-90 -130h-135l-90 130h62l96 -90zM139 0h-81v700h81v-700z" glyph-name="uni01CF" horiz-adv-x="197" unicode="Ǐ"/><glyph d="M188 701h62l-90 -130h-135l-90 130h62l96 -90zM56 520h77v-520h-77v520z" glyph-name="uni01D0" horiz-adv-x="188" unicode="ǐ"/><glyph d="M437 881h62l-90 -130h-135l-90 130h62l96 -90zM343 708q140 0 222.5 -90t82.5 -268t-82.5 -268t-222.5 -90t-222.5 90t-82.5 268t82.5 268t222.5 90zM343 66q104 0 162.5 70t58.5 214t-58.5 214t-162.5 70t-162.5 -70t-58.5 -214t58.5 -214t162.5 -70z" glyph-name="uni01D1" horiz-adv-x="686" unicode="Ǒ"/><glyph d="M367 701h62l-90 -130h-135l-90 130h62l96 -90zM273 526q96 0 168.5 -69t72.5 -198q0 -67 -21.5 -120t-56.5 -84.5t-77 -47.5t-86 -16q-60 0 -113 27t-90 90t-37 151q0 129 72 198t168 69zM438 259q0 100 -48 151.5t-117 51.5t-116.5 -51.5t-47.5 -151.5t47.5 -152 t116.5 -52t117 52t48 152z" glyph-name="uni01D2" horiz-adv-x="546" unicode="ǒ"/><glyph d="M415 881h62l-90 -130h-135l-90 130h62l96 -90zM589 264q0 -128 -71.5 -199.5t-194.5 -71.5q-122 0 -193.5 71.5t-71.5 199.5v436h81v-429q0 -102 47 -153t137 -51t137.5 51.5t47.5 152.5v429h81v-436z" glyph-name="uni01D3" horiz-adv-x="647" unicode="Ǔ"/><glyph d="M346 571h-135l-90 130h62l96 -90l95 90h62zM427 520h77v-520h-77v120q-13 -40 -62 -82.5t-124 -42.5q-185 0 -185 207v318h77v-313q0 -144 128 -144q68 0 111.5 44t54.5 91v322z" glyph-name="uni01D4" horiz-adv-x="559" unicode="ǔ"/><glyph d="M420 0q-59 -20 -90.5 -50.5t-31.5 -65.5q0 -31 25 -42.5t70 -2.5v-38q-22 -10 -50 -12t-55 3.5t-45.5 26t-18.5 51.5q0 40 33.5 72t80.5 50q-138 2 -219 92t-81 266q0 178 82.5 268t222.5 90t222.5 -90t82.5 -268q0 -151 -60.5 -239t-167.5 -111zM122 350 q0 -144 58.5 -214t162.5 -70t162.5 70t58.5 214t-58.5 214t-162.5 70t-162.5 -70t-58.5 -214z" glyph-name="uni01EA" horiz-adv-x="686" unicode="Ǫ"/><glyph d="M336 -1q-59 -20 -90 -50t-31 -65q0 -31 25 -42.5t70 -2.5v-38q-22 -10 -50 -12t-55 3.5t-45.5 26t-18.5 51.5q0 40 33 72t80 50q-91 7 -156 75.5t-65 191.5q0 129 72 198t168 69t168.5 -69t72.5 -198q0 -107 -51 -173t-127 -87zM109 259q0 -100 47.5 -152t116.5 -52 t117 52t48 152t-48 151.5t-117 51.5t-116.5 -51.5t-47.5 -151.5z" glyph-name="uni01EB" horiz-adv-x="546" unicode="ǫ"/><glyph d="M355 387q104 -22 157.5 -68.5t53.5 -132.5q0 -92 -69.5 -143t-191.5 -51q-121 0 -186.5 55t-75.5 150h84q21 -134 178 -134q177 0 177 123q0 104 -134 132l-101 21q-186 40 -186 186q0 82 62 132.5t176 50.5q110 0 171 -47t72 -132h-83q-17 108 -160 108 q-80 0 -117 -31.5t-37 -81.5q0 -93 117 -117zM240 -302v26q20 11 26.5 30.5t6.5 57.5v30h-33v97h100v-124q0 -111 -100 -117z" glyph-name="Scommaaccent" horiz-adv-x="608" unicode="Ș"/><glyph d="M368 390q-15 42 -45.5 59.5t-80.5 17.5q-115 0 -115 -81q0 -35 20.5 -54t69.5 -31l82 -20q84 -20 120.5 -47t36.5 -93q0 -77 -59 -112.5t-151 -35.5q-90 0 -146.5 37.5t-66.5 115.5h71q20 -94 142 -94q59 0 95 21.5t36 67.5q0 38 -21.5 55.5t-70.5 28.5l-92 22 q-74 18 -109 50.5t-35 88.5q0 67 51 103.5t141 36.5q164 0 198 -136h-71zM184 -302v26q20 11 26.5 30.5t6.5 57.5v30h-33v97h100v-124q0 -111 -100 -117z" glyph-name="scommaaccent" horiz-adv-x="488" unicode="ș"/><glyph d="M519 700v-73h-200v-627h-82v627h-199v73h281h200zM218 -158v97h100v-124q0 -111 -100 -117v26q20 11 26.5 30.5t6.5 57.5v30h-33z" glyph-name="uni021A" horiz-adv-x="557" unicode="Ț"/><glyph d="M216 60q27 0 65 7v-62q-30 -11 -84 -11q-48 0 -75 23t-27 81v358h-75v64h75v130h77v-130h100v-64h-100v-355q0 -22 10 -31.5t34 -9.5zM137 -158v97h100v-124q0 -111 -100 -117v26q20 11 26.5 30.5t6.5 57.5v30h-33z" glyph-name="uni021B" horiz-adv-x="314" unicode="ț"/><glyph d="M-59 -106q56 -25 89 -25q53 0 53 84v567h77v-581q0 -144 -124 -144q-46 0 -95 26v73z" glyph-name="uni0237" horiz-adv-x="238" unicode="ȷ"/><glyph d="M253 580l-95 89l-96 -89h-62l90 129h135l90 -129h-62z" glyph-name="circumflex" horiz-adv-x="315" unicode="ˆ"/><glyph d="M253 700h62l-90 -129h-135l-90 129h62l96 -89z" glyph-name="caron" horiz-adv-x="315" unicode="ˇ"/><glyph d="M234 709h54q0 -55 -36 -91t-108 -36q-73 0 -108.5 36t-35.5 91h53q10 -73 91 -73q82 0 90 73z" glyph-name="breve" horiz-adv-x="288" unicode="˘"/><glyph d="M0 709h81v-89h-81v89z" glyph-name="dotaccent" horiz-adv-x="81" unicode="˙"/><glyph d="M87 581q-37 0 -62 24.5t-25 59.5t25 60t62 25q35 0 59.5 -25t24.5 -60t-24.5 -59.5t-59.5 -24.5zM85 619q19 0 33 13.5t14 32.5q0 20 -13.5 33.5t-33.5 13.5q-19 0 -32.5 -13.5t-13.5 -33.5q0 -19 13.5 -32.5t32.5 -13.5z" glyph-name="ring" horiz-adv-x="171" unicode="˚"/><glyph d="M169 -199q-22 -10 -50 -12t-55 3.5t-45.5 26t-18.5 51.5q0 46 43 81t96 49h58q-59 -20 -91 -50.5t-32 -65.5q0 -31 25 -42.5t70 -2.5v-38z" glyph-name="ogonek" horiz-adv-x="197" unicode="˛"/><glyph d="M312 700h37q0 -45 -28 -72t-71 -27q-37 0 -84 36t-76 36q-26 0 -39.5 -13t-12.5 -30h-38q0 45 28 72t71 27q37 0 84 -36t76 -36q26 0 40 13t13 30z" glyph-name="tilde" horiz-adv-x="349" unicode="˜"/><glyph d="M0 581h68l108 128h-109zM163 581h68l108 128h-109z" glyph-name="hungarumlaut" horiz-adv-x="339" unicode="˝"/><glyph d="M-109 -302v26q19 11 25.5 30t6.5 58v30h-33v97h101v-124q0 -111 -100 -117z" glyph-name="uni0326" horiz-adv-x="0" unicode="̦"/><glyph d="M681 0h-633l305 700h23zM579 68l-214 502l-216 -502h430z" glyph-name="Delta" horiz-adv-x="729" unicode="Δ"/><glyph d="M736 357q0 -170 -158 -283h133v-74h-205v111l41 31q111 86 111 215q0 120 -81 198t-188 78q-106 0 -187 -78t-81 -198q0 -129 110 -215l41 -31v-111h-205v74h133q-158 114 -158 283q0 148 106 249t241 101t241 -101t106 -249z" glyph-name="Omega" horiz-adv-x="779" unicode="Ω"/><glyph d="M427 520h77v-520h-77v120q-13 -40 -62 -82.5t-124 -42.5q-65 0 -108 27v-212h-77v710h77v-313q0 -144 128 -144q68 0 111.5 44t54.5 91v322z" glyph-name="mu" horiz-adv-x="559" unicode="μ"/><glyph d="M555 62q32 0 68 18v-68q-36 -18 -82 -18t-75.5 23.5t-29.5 76.5v359h-211v-453h-77v453h-100v67h564v-67h-99v-336q0 -33 9.5 -44t32.5 -11z" glyph-name="pi" horiz-adv-x="666" unicode="π"/><glyph d="M312 450q120 0 180 -58.5t60 -165.5q0 -108 -60 -167t-180 -59h-254v700h81h353v-67h-353v-183h173zM313 73q153 0 153 153q0 151 -153 151h-174v-304h174z" glyph-name="afii10018" horiz-adv-x="638" unicode="Б"/><glyph d="M540 761l-67 128h-109l108 -128h68zM890 700h84l-203 -700h-76l-192 585l-191 -585h-76l-203 700h84l161 -581l184 581h83l183 -581z" glyph-name="Wgrave" horiz-adv-x="1007" unicode="Ẁ"/><glyph d="M439 581l-67 128h-109l108 -128h68zM780 520l-155 -520h-72l-152 425l-152 -425h-71l-155 520h78l120 -425l149 425h63l148 -425l121 425h78z" glyph-name="wgrave" horiz-adv-x="803" unicode="ẁ"/><glyph d="M469 761h68l108 128h-109zM890 700h84l-203 -700h-76l-192 585l-191 -585h-76l-203 700h84l161 -581l184 581h83l183 -581z" glyph-name="Wacute" horiz-adv-x="1007" unicode="Ẃ"/><glyph d="M368 581h68l108 128h-109zM780 520l-155 -520h-72l-152 425l-152 -425h-71l-155 520h78l120 -425l149 425h63l148 -425l121 425h78z" glyph-name="wacute" horiz-adv-x="803" unicode="ẃ"/><glyph d="M357 889h81v-89h-81v89zM570 889h80v-89h-80v89zM890 700h84l-203 -700h-76l-192 585l-191 -585h-76l-203 700h84l161 -581l184 581h83l183 -581z" glyph-name="Wdieresis" horiz-adv-x="1007" unicode="Ẅ"/><glyph d="M255 709h81v-89h-81v89zM468 709h80v-89h-80v89zM780 520l-155 -520h-72l-152 425l-152 -425h-71l-155 520h78l120 -425l149 425h63l148 -425l121 425h78z" glyph-name="wdieresis" horiz-adv-x="803" unicode="ẅ"/><glyph d="M368 761l-67 128h-109l108 -128h68zM372 276v-276h-82v276l-257 424h93l205 -350l205 350h93z" glyph-name="Ygrave" horiz-adv-x="661" unicode="Ỳ"/><glyph d="M303 581h-68l-108 128h109zM429 520h77l-220 -563q-33 -83 -82 -114t-122 -34v67q101 5 132 85l12 32l-203 527h76l163 -434z" glyph-name="ygrave" horiz-adv-x="528" unicode="ỳ"/><glyph d="M45 311h510v-62h-510v62z" glyph-name="endash" horiz-adv-x="600" unicode="–"/><glyph d="M45 311h570v-62h-570v62z" glyph-name="emdash" horiz-adv-x="660" unicode="—"/><glyph d="M140 700v-26q-20 -11 -26.5 -30.5t-6.5 -57.5v-30h34v-97h-101v124q0 111 100 117z" glyph-name="quoteleft" horiz-adv-x="176" unicode="‘"/><glyph d="M41 459v27q19 10 25.5 29.5t6.5 57.5v30h-33v97h101v-123q0 -109 -100 -118z" glyph-name="quoteright" horiz-adv-x="176" unicode="’"/><glyph d="M41 -180v26q19 11 25.5 30t6.5 58v30h-33v97h101v-124q0 -111 -100 -117z" glyph-name="quotesinglbase" horiz-adv-x="176" unicode="‚"/><glyph d="M140 700v-26q-20 -11 -26.5 -30.5t-6.5 -57.5v-30h34v-97h-101v124q0 111 100 117zM301 700v-26q-20 -11 -26.5 -30t-6.5 -58v-30h33v-97h-100v124q0 111 100 117z" glyph-name="quotedblleft" horiz-adv-x="336" unicode="“"/><glyph d="M40 495v26q20 11 26.5 30t6.5 58v30h-33v97h100v-124q0 -111 -100 -117zM201 495v27q20 10 26.5 29t6.5 58v30h-33v97h100v-123q0 -110 -100 -118z" glyph-name="quotedblright" horiz-adv-x="336" unicode="”"/><glyph d="M41 -180v26q19 11 25.5 30t6.5 58v30h-33v97h101v-124q0 -111 -100 -117zM198 -180v26q19 11 25.5 30t6.5 58v30h-33v97h102v-124q0 -111 -101 -117z" glyph-name="quotedblbase" horiz-adv-x="333" unicode="„"/><glyph d="M285 580v-60h-86v-255h-62v255h-87v60h87v120h62v-120h86z" glyph-name="dagger" horiz-adv-x="335" unicode="†"/><glyph d="M285 488h-86v-276h86v-60h-86v-152h-62v152h-87v60h87v276h-87v60h87v152h62v-152h86v-60z" glyph-name="daggerdbl" horiz-adv-x="335" unicode="‡"/><glyph d="M131 183q-34 0 -57.5 23.5t-23.5 57.5q0 33 23.5 56.5t57.5 23.5q32 0 55.5 -23.5t23.5 -56.5q0 -34 -23.5 -57.5t-55.5 -23.5z" glyph-name="bullet" horiz-adv-x="260" unicode="•"/><glyph d="M297 100h90v-100h-90v100zM544 100h90v-100h-90v100zM50 100h90v-100h-90v100z" glyph-name="ellipsis" horiz-adv-x="682" unicode="…"/><glyph d="M173 401q-56 0 -92 40.5t-36 112.5q0 71 36 111t92 40t92 -40t36 -111q0 -72 -36 -112.5t-92 -40.5zM127 0l411 701l59 -1l-410 -700h-60zM174 453q71 0 71 101q0 98 -71 98q-72 0 -72 -98q0 -101 72 -101zM550 -5q-56 0 -91.5 40.5t-35.5 112.5q0 71 36 111t92 40 t92 -40t36 -111q0 -72 -36 -112.5t-93 -40.5zM868 -5q-56 0 -91.5 40.5t-35.5 112.5q0 71 36 111t92 40q57 0 93 -40t36 -111t-36.5 -112t-93.5 -41zM552 48q71 0 71 101q0 98 -71 98q-72 0 -72 -98q0 -101 72 -101zM870 48q71 0 71 101q0 98 -71 98q-72 0 -72 -98 q0 -101 72 -101z" glyph-name="perthousand" horiz-adv-x="1043" unicode="‰"/><glyph d="M175 393l-90 -94l90 -96v-62l-130 90v134l130 91v-63z" glyph-name="guilsinglleft" horiz-adv-x="220" unicode="‹"/><glyph d="M45 394v62l130 -90v-135l-130 -90v62l90 96z" glyph-name="guilsinglright" horiz-adv-x="220" unicode="›"/><glyph d="M-122 0h-43l437 700h42z" glyph-name="fraction" horiz-adv-x="150" unicode="⁄"/><glyph d="M570 173h80q-18 -88 -88 -134.5t-175 -46.5q-119 0 -198 66.5t-99 198.5h-55v50h49q-1 14 -1 43v23h-48v49h52q17 142 96.5 214t203.5 72q104 0 173.5 -46.5t87.5 -133.5h-80q-38 106 -180 106q-90 0 -146 -52.5t-71 -159.5h191v-49h-195v-23q0 -29 1 -43h194v-50h-187 q35 -191 213 -191q144 0 182 107z" glyph-name="Euro" horiz-adv-x="678" unicode="€"/><glyph d="M216 667h-64v-147h-38v147h-64v33h166v-33zM462 700v-180h-38v115l-52 -115h-31l-52 115v-115h-38v180h38l68 -143l67 143h38z" glyph-name="trademark" horiz-adv-x="512" unicode="™"/><glyph d="M233 471q66 0 115 -33.5t66 -86.5q1 57 -6.5 104.5t-26.5 91t-57.5 68.5t-92.5 25q-64 0 -99.5 -31t-43.5 -80h-75q5 71 61.5 124.5t156.5 53.5q72 0 124 -31.5t80.5 -87t41 -119t12.5 -138.5q0 -163 -66 -252t-185 -89q-105 0 -173.5 64.5t-68.5 177.5q0 110 68 174.5 t169 64.5zM238 57q71 0 117 50t46 127q0 80 -46.5 126.5t-116.5 46.5q-74 0 -120.5 -47t-46.5 -128q0 -84 46 -129.5t121 -45.5z" glyph-name="partialdiff" horiz-adv-x="539" unicode="∂"/><glyph d="M45 800h585v-990h-73v920h-439v-920h-73v990z" glyph-name="product" horiz-adv-x="675" unicode="∏"/><glyph d="M617 729h-448l236 -424l-236 -424h448v-71h-572l275 495l-275 495h572v-71z" glyph-name="summation" horiz-adv-x="662" unicode="∑"/><glyph d="M45 288h366v-56h-366v56z" glyph-name="minus" horiz-adv-x="425" unicode="−"/><glyph d="M691 800l-272 -990h-83l-180 460h-111v81h161l166 -435l244 884h75z" glyph-name="radical" horiz-adv-x="736" unicode="√"/><glyph d="M585 426q72 0 121 -46.5t49 -117.5q0 -73 -49 -120t-121 -47q-99 0 -190 110q-89 -110 -189 -110q-73 0 -122 47t-49 120q0 71 49 117.5t122 46.5q98 0 189 -108q92 108 190 108zM208 159q43 0 76 26t68 77q-35 50 -68 75.5t-76 25.5q-44 0 -73 -29t-29 -72t29 -73 t73 -30zM582 159q44 0 73 30t29 73t-29 72t-73 29q-43 0 -76 -25.5t-68 -75.5q35 -51 68 -77t76 -26z" glyph-name="infinity" horiz-adv-x="790" unicode="∞"/><glyph d="M101 541q0 90 42.5 126.5t120.5 36.5v-68q-46 0 -66 -23.5t-20 -81.5v-558q0 -90 -42.5 -126.5t-120.5 -36.5v67q46 0 66 23.5t20 82.5v558z" glyph-name="integral" horiz-adv-x="294" unicode="∫"/><glyph d="M378 395h39q0 -48 -29 -76.5t-74 -28.5q-39 0 -88.5 38.5t-80.5 38.5q-27 0 -41.5 -14t-13.5 -32h-39q0 48 29 76.5t74 28.5q40 0 89 -38.5t80 -38.5q27 0 41.5 14t13.5 32zM378 235h39q0 -48 -29 -76.5t-74 -28.5q-39 0 -88.5 38.5t-80.5 38.5q-27 0 -41.5 -14 t-13.5 -32h-39q0 48 29 76.5t74 28.5q40 0 89 -38.5t80 -38.5q27 0 41.5 14t13.5 32z" glyph-name="approxequal" horiz-adv-x="483" unicode="≈"/><glyph d="M411 332h-152l-40 -104h192v-56h-214l-67 -172h-53l67 172h-100v56h122l40 104h-162v56h184l67 173h53l-67 -173h130v-56z" glyph-name="notequal" horiz-adv-x="425" unicode="≠"/><glyph d="M389 225l-287 150l287 150v69l-343 -185v-67l343 -185v68zM54 40h366v-56h-366v56z" glyph-name="lessequal" horiz-adv-x="429" unicode="≤"/><glyph d="M46 225v-68l343 185v67l-343 185v-69l287 -150zM381 40v-56h-366v56h366z" glyph-name="greaterequal" horiz-adv-x="434" unicode="≥"/><glyph d="M303 700l155 -350l-155 -350h-79h-24l-155 350l155 350h79h24zM251 63l128 287l-128 287l-127 -287z" glyph-name="lozenge" horiz-adv-x="503" unicode="◊"/><glyph d="M634 352v-352h-74v109q-63 -117 -217 -117q-141 0 -223 90t-82 268q0 179 82 268.5t223 89.5q102 0 171.5 -44.5t88.5 -123.5h-77q-44 94 -183 94q-105 0 -163 -70t-58 -214t58 -214t163 -70q105 -1 160.5 47t55.5 144v29h-161v66h236z" glyph-name="G.salt" horiz-adv-x="677"/><glyph d="M634 352v-352h-74v109q-63 -117 -217 -117q-141 0 -223 90t-82 268q0 179 82 268.5t223 89.5q102 0 171.5 -44.5t88.5 -123.5h-77q-44 94 -183 94q-105 0 -163 -70t-58 -214t58 -214t163 -70q105 -1 160.5 47t55.5 144v29h-161v66h236z" glyph-name="G.ss05" horiz-adv-x="677"/><glyph d="M54 709h81v-89h-81v89zM56 520h77v-520h-77v520z" glyph-name="i.aalt" horiz-adv-x="188"/><glyph d="M258 526q122 0 174 -103v97h77v-520h-77v102q-21 -51 -65.5 -81t-108.5 -30q-90 0 -157.5 69t-67.5 200q0 130 67.5 198t157.5 68zM270 55q70 0 118 53t48 152q0 100 -47.5 151t-118.5 51q-69 0 -115 -51t-46 -151q0 -101 46 -153t115 -52z" glyph-name="a.salt"/><glyph d="M248 581h68l108 128h-109zM258 526q122 0 174 -103v97h77v-520h-77v102q-21 -51 -65.5 -81t-108.5 -30q-90 0 -157.5 69t-67.5 200q0 130 67.5 198t157.5 68zM270 55q70 0 118 53t48 152q0 100 -47.5 151t-118.5 51q-69 0 -115 -51t-46 -151q0 -101 46 -153t115 -52z" glyph-name="aacute.salt"/><glyph d="M372 709h54q0 -55 -36 -91t-108 -36q-73 0 -108.5 36t-35.5 91h53q10 -73 91 -73q82 0 90 73zM258 526q122 0 174 -103v97h77v-520h-77v102q-21 -51 -65.5 -81t-108.5 -30q-90 0 -157.5 69t-67.5 200q0 130 67.5 198t157.5 68zM270 55q70 0 118 53t48 152 q0 100 -47.5 151t-118.5 51q-69 0 -115 -51t-46 -151q0 -101 46 -153t115 -52z" glyph-name="abreve.salt"/><glyph d="M376 701h62l-90 -130h-135l-90 130h62l96 -90zM258 526q122 0 174 -103v97h77v-520h-77v102q-21 -51 -65.5 -81t-108.5 -30q-90 0 -157.5 69t-67.5 200q0 130 67.5 198t157.5 68zM270 55q70 0 118 53t48 152q0 100 -47.5 151t-118.5 51q-69 0 -115 -51t-46 -151 q0 -101 46 -153t115 -52z" glyph-name="uni01CE.salt"/><glyph d="M377 580l-95 89l-96 -89h-62l90 129h135l90 -129h-62zM258 526q122 0 174 -103v97h77v-520h-77v102q-21 -51 -65.5 -81t-108.5 -30q-90 0 -157.5 69t-67.5 200q0 130 67.5 198t157.5 68zM270 55q70 0 118 53t48 152q0 100 -47.5 151t-118.5 51q-69 0 -115 -51t-46 -151 q0 -101 46 -153t115 -52z" glyph-name="acircumflex.salt"/><glyph d="M136 709h81v-89h-81v89zM349 709h80v-89h-80v89zM258 526q122 0 174 -103v97h77v-520h-77v102q-21 -51 -65.5 -81t-108.5 -30q-90 0 -157.5 69t-67.5 200q0 130 67.5 198t157.5 68zM270 55q70 0 118 53t48 152q0 100 -47.5 151t-118.5 51q-69 0 -115 -51t-46 -151 q0 -101 46 -153t115 -52z" glyph-name="adieresis.salt"/><glyph d="M319 581l-67 128h-109l108 -128h68zM258 526q122 0 174 -103v97h77v-520h-77v102q-21 -51 -65.5 -81t-108.5 -30q-90 0 -157.5 69t-67.5 200q0 130 67.5 198t157.5 68zM270 55q70 0 118 53t48 152q0 100 -47.5 151t-118.5 51q-69 0 -115 -51t-46 -151q0 -101 46 -153 t115 -52z" glyph-name="agrave.salt"/><glyph d="M130 709h305v-49h-305v49zM258 526q122 0 174 -103v97h77v-520h-77v102q-21 -51 -65.5 -81t-108.5 -30q-90 0 -157.5 69t-67.5 200q0 130 67.5 198t157.5 68zM270 55q70 0 118 53t48 152q0 100 -47.5 151t-118.5 51q-69 0 -115 -51t-46 -151q0 -101 46 -153t115 -52z" glyph-name="amacron.salt"/><glyph d="M432 520h77v-520h-19q-59 -20 -91 -50.5t-32 -65.5q0 -31 25 -42.5t70 -2.5v-38q-22 -10 -50 -12t-55 3.5t-45.5 26t-18.5 51.5q0 46 43 81t96 49v102q-21 -51 -65.5 -81t-108.5 -30q-90 0 -157.5 69t-67.5 200q0 130 67.5 198t157.5 68q122 0 174 -103v97zM270 55 q70 0 118 53t48 152q0 100 -47.5 151t-118.5 51q-69 0 -115 -51t-46 -151q0 -101 46 -153t115 -52z" glyph-name="aogonek.salt"/><glyph d="M283 581q-37 0 -62 24.5t-25 59.5t25 60t62 25q35 0 59.5 -25t24.5 -60t-24.5 -59.5t-59.5 -24.5zM281 619q19 0 33 13.5t14 32.5q0 20 -13.5 33.5t-33.5 13.5q-19 0 -32.5 -13.5t-13.5 -33.5q0 -19 13.5 -32.5t32.5 -13.5zM258 526q122 0 174 -103v97h77v-520h-77v102 q-21 -51 -65.5 -81t-108.5 -30q-90 0 -157.5 69t-67.5 200q0 130 67.5 198t157.5 68zM270 55q70 0 118 53t48 152q0 100 -47.5 151t-118.5 51q-69 0 -115 -51t-46 -151q0 -101 46 -153t115 -52z" glyph-name="aring.salt"/><glyph d="M419 700h37q0 -45 -28 -72t-71 -27q-37 0 -84 36t-76 36q-26 0 -39.5 -13t-12.5 -30h-38q0 45 28 72t71 27q37 0 84 -36t76 -36q26 0 40 13t13 30zM258 526q122 0 174 -103v97h77v-520h-77v102q-21 -51 -65.5 -81t-108.5 -30q-90 0 -157.5 69t-67.5 200q0 130 67.5 198 t157.5 68zM270 55q70 0 118 53t48 152q0 100 -47.5 151t-118.5 51q-69 0 -115 -51t-46 -151q0 -101 46 -153t115 -52z" glyph-name="atilde.salt"/><glyph d="M261 125q61 0 111 -16t85.5 -56t35.5 -100q0 -88 -67.5 -130.5t-165.5 -42.5q-93 0 -160 42.5t-67 130.5q0 102 111 141q-44 4 -72 24t-28 52q0 26 17.5 44t49.5 23q-42 45 -42 117q0 80 53 126t137 46q85 0 138 -47q24 42 85 41v-58q-38 0 -56 -20q23 -37 23 -88 q0 -81 -53 -127t-137 -46q-71 0 -120 32q-32 -7 -32 -38q0 -50 92 -50h62zM259 468q-58 0 -89.5 -31t-31.5 -83q0 -53 31.5 -84.5t89.5 -31.5t89 31.5t31 84.5q0 52 -31 83t-89 31zM260 -162q158 0 158 115q0 114 -158 114q-69 0 -110.5 -28t-41.5 -86q0 -59 41.5 -87 t110.5 -28z" glyph-name="g.salt" horiz-adv-x="533"/><glyph d="M181 -2q-65 -6 -94 14.5t-29 82.5v605h77v-606q0 -39 46 -38v-58z" glyph-name="l.salt" horiz-adv-x="203"/><glyph d="M258 526q122 0 174 -103v97h77v-520h-77v102q-21 -51 -65.5 -81t-108.5 -30q-90 0 -157.5 69t-67.5 200q0 130 67.5 198t157.5 68zM270 55q70 0 118 53t48 152q0 100 -47.5 151t-118.5 51q-69 0 -115 -51t-46 -151q0 -101 46 -153t115 -52z" glyph-name="a.ss02"/><glyph d="M248 581h68l108 128h-109zM258 526q122 0 174 -103v97h77v-520h-77v102q-21 -51 -65.5 -81t-108.5 -30q-90 0 -157.5 69t-67.5 200q0 130 67.5 198t157.5 68zM270 55q70 0 118 53t48 152q0 100 -47.5 151t-118.5 51q-69 0 -115 -51t-46 -151q0 -101 46 -153t115 -52z" glyph-name="aacute.ss02"/><glyph d="M372 709h54q0 -55 -36 -91t-108 -36q-73 0 -108.5 36t-35.5 91h53q10 -73 91 -73q82 0 90 73zM258 526q122 0 174 -103v97h77v-520h-77v102q-21 -51 -65.5 -81t-108.5 -30q-90 0 -157.5 69t-67.5 200q0 130 67.5 198t157.5 68zM270 55q70 0 118 53t48 152 q0 100 -47.5 151t-118.5 51q-69 0 -115 -51t-46 -151q0 -101 46 -153t115 -52z" glyph-name="abreve.ss02"/><glyph d="M376 701h62l-90 -130h-135l-90 130h62l96 -90zM258 526q122 0 174 -103v97h77v-520h-77v102q-21 -51 -65.5 -81t-108.5 -30q-90 0 -157.5 69t-67.5 200q0 130 67.5 198t157.5 68zM270 55q70 0 118 53t48 152q0 100 -47.5 151t-118.5 51q-69 0 -115 -51t-46 -151 q0 -101 46 -153t115 -52z" glyph-name="uni01CE.ss02"/><glyph d="M377 580l-95 89l-96 -89h-62l90 129h135l90 -129h-62zM258 526q122 0 174 -103v97h77v-520h-77v102q-21 -51 -65.5 -81t-108.5 -30q-90 0 -157.5 69t-67.5 200q0 130 67.5 198t157.5 68zM270 55q70 0 118 53t48 152q0 100 -47.5 151t-118.5 51q-69 0 -115 -51t-46 -151 q0 -101 46 -153t115 -52z" glyph-name="acircumflex.ss02"/><glyph d="M136 709h81v-89h-81v89zM349 709h80v-89h-80v89zM258 526q122 0 174 -103v97h77v-520h-77v102q-21 -51 -65.5 -81t-108.5 -30q-90 0 -157.5 69t-67.5 200q0 130 67.5 198t157.5 68zM270 55q70 0 118 53t48 152q0 100 -47.5 151t-118.5 51q-69 0 -115 -51t-46 -151 q0 -101 46 -153t115 -52z" glyph-name="adieresis.ss02"/><glyph d="M319 581l-67 128h-109l108 -128h68zM258 526q122 0 174 -103v97h77v-520h-77v102q-21 -51 -65.5 -81t-108.5 -30q-90 0 -157.5 69t-67.5 200q0 130 67.5 198t157.5 68zM270 55q70 0 118 53t48 152q0 100 -47.5 151t-118.5 51q-69 0 -115 -51t-46 -151q0 -101 46 -153 t115 -52z" glyph-name="agrave.ss02"/><glyph d="M130 709h305v-49h-305v49zM258 526q122 0 174 -103v97h77v-520h-77v102q-21 -51 -65.5 -81t-108.5 -30q-90 0 -157.5 69t-67.5 200q0 130 67.5 198t157.5 68zM270 55q70 0 118 53t48 152q0 100 -47.5 151t-118.5 51q-69 0 -115 -51t-46 -151q0 -101 46 -153t115 -52z" glyph-name="amacron.ss02"/><glyph d="M432 520h77v-520h-19q-59 -20 -91 -50.5t-32 -65.5q0 -31 25 -42.5t70 -2.5v-38q-22 -10 -50 -12t-55 3.5t-45.5 26t-18.5 51.5q0 46 43 81t96 49v102q-21 -51 -65.5 -81t-108.5 -30q-90 0 -157.5 69t-67.5 200q0 130 67.5 198t157.5 68q122 0 174 -103v97zM270 55 q70 0 118 53t48 152q0 100 -47.5 151t-118.5 51q-69 0 -115 -51t-46 -151q0 -101 46 -153t115 -52z" glyph-name="aogonek.ss02"/><glyph d="M283 581q-37 0 -62 24.5t-25 59.5t25 60t62 25q35 0 59.5 -25t24.5 -60t-24.5 -59.5t-59.5 -24.5zM281 619q19 0 33 13.5t14 32.5q0 20 -13.5 33.5t-33.5 13.5q-19 0 -32.5 -13.5t-13.5 -33.5q0 -19 13.5 -32.5t32.5 -13.5zM258 526q122 0 174 -103v97h77v-520h-77v102 q-21 -51 -65.5 -81t-108.5 -30q-90 0 -157.5 69t-67.5 200q0 130 67.5 198t157.5 68zM270 55q70 0 118 53t48 152q0 100 -47.5 151t-118.5 51q-69 0 -115 -51t-46 -151q0 -101 46 -153t115 -52z" glyph-name="aring.ss02"/><glyph d="M419 700h37q0 -45 -28 -72t-71 -27q-37 0 -84 36t-76 36q-26 0 -39.5 -13t-12.5 -30h-38q0 45 28 72t71 27q37 0 84 -36t76 -36q26 0 40 13t13 30zM258 526q122 0 174 -103v97h77v-520h-77v102q-21 -51 -65.5 -81t-108.5 -30q-90 0 -157.5 69t-67.5 200q0 130 67.5 198 t157.5 68zM270 55q70 0 118 53t48 152q0 100 -47.5 151t-118.5 51q-69 0 -115 -51t-46 -151q0 -101 46 -153t115 -52z" glyph-name="atilde.ss02"/><glyph d="M261 125q61 0 111 -16t85.5 -56t35.5 -100q0 -88 -67.5 -130.5t-165.5 -42.5q-93 0 -160 42.5t-67 130.5q0 102 111 141q-44 4 -72 24t-28 52q0 26 17.5 44t49.5 23q-42 45 -42 117q0 80 53 126t137 46q85 0 138 -47q24 42 85 41v-58q-38 0 -56 -20q23 -37 23 -88 q0 -81 -53 -127t-137 -46q-71 0 -120 32q-32 -7 -32 -38q0 -50 92 -50h62zM259 468q-58 0 -89.5 -31t-31.5 -83q0 -53 31.5 -84.5t89.5 -31.5t89 31.5t31 84.5q0 52 -31 83t-89 31zM260 -162q158 0 158 115q0 114 -158 114q-69 0 -110.5 -28t-41.5 -86q0 -59 41.5 -87 t110.5 -28z" glyph-name="g.ss03" horiz-adv-x="533"/><glyph d="M181 -2q-65 -6 -94 14.5t-29 82.5v605h77v-606q0 -39 46 -38v-58z" glyph-name="l.ss04" horiz-adv-x="203"/><glyph d="M535 60q27 0 65 7v-62q-30 -11 -84 -11q-102 0 -102 104v358h-125h-120v-456h-77v456h-74v64h74v51q0 43 11.5 71.5t32.5 42t43 19t51 5.5q33 0 74 -9v-61q-40 6 -63 6q-38 0 -55 -16.5t-17 -58.5v-50h128h117v130h77v-130h100v-64h-100v-355q0 -41 44 -41z" glyph-name="f_t.dlig" horiz-adv-x="633"/><glyph d="M534 60q26 0 65 7v-62q-30 -11 -84 -11q-48 0 -75 23t-27 81v358h-75q-177 -6 -208 -152v-304h-77v520h77v-129q13 55 66 91t142 38h75v130h77v-130h100v-64h-100v-355q0 -22 10 -31.5t34 -9.5z" glyph-name="r_t.dlig" horiz-adv-x="632"/><glyph d="M136 -2q46 0 75.5 35.5t29.5 90.5v13q0 55 -29.5 90.5t-75.5 35.5t-75.5 -35.5t-29.5 -90.5v-13q0 -55 29.5 -90.5t75.5 -35.5zM136 231q30 0 50.5 -25.5t20.5 -68.5v-13q0 -43 -20.5 -68.5t-50.5 -25.5t-50.5 25.5t-20.5 68.5v13q0 43 20.5 68.5t50.5 25.5z" glyph-name="zero.dnom" horiz-adv-x="281"/><glyph d="M132 261v-261h-33v215q-13 -24 -47 -24v34q14 0 27.5 11t19.5 25h33z" glyph-name="one.dnom" horiz-adv-x="173"/><glyph d="M45 0v9q0 37 17 64t57 53q42 26 49 39q7 10 7 25q0 19 -13 31t-34 12q-22 0 -35 -12.5t-13 -36.5v-7h-35v7q0 37 22 59t61 22q38 0 60 -21t22 -54q0 -29 -18.5 -48.5t-55.5 -41.5q-54 -33 -54 -66v-3h131v-31h-168z" glyph-name="two.dnom" horiz-adv-x="258"/><glyph d="M175 139q23 -4 41 -20.5t18 -45.5q0 -33 -25.5 -55t-69.5 -22t-69 23.5t-25 61.5h34q1 -55 61 -55t60 48t-67 48h-11v29h11q54 0 54 43q0 19 -13.5 30t-35.5 11q-51 0 -51 -52h-34q0 39 23 60.5t62 21.5q38 0 60 -19.5t22 -49.5q0 -44 -45 -57z" glyph-name="three.dnom" horiz-adv-x="279"/><glyph d="M228 66h-30v-66h-33v66h-119v27l119 168h33v-168h30v-27zM165 93v125l-88 -125h88z" glyph-name="four.dnom" horiz-adv-x="273"/><glyph d="M130 176q35 0 59.5 -24.5t24.5 -65.5q0 -42 -25.5 -66.5t-67.5 -24.5q-41 0 -66 24t-25 61h33q1 -23 16.5 -38t41.5 -15q27 0 42.5 15.5t15.5 43.5q0 32 -16.5 46.5t-38.5 14.5q-37 0 -58 -26h-31l22 140h135v-31h-111l-13 -80q20 26 62 26z" glyph-name="five.dnom" horiz-adv-x="244"/><glyph d="M142 172q36 0 61.5 -21.5t25.5 -64.5q0 -45 -26.5 -68t-65.5 -23q-43 0 -70 32t-27 99q0 62 23.5 100t73.5 38q39 0 60 -21.5t24 -48.5h-34q-8 38 -50 38q-27 0 -42 -18t-18 -35.5t-4 -43.5q7 15 25 26t44 11zM137 27q57 0 57 59q0 29 -16 43.5t-41 14.5t-42 -15t-17 -41 q0 -28 17 -44.5t42 -16.5z" glyph-name="six.dnom" horiz-adv-x="269"/><glyph d="M195 261v-31l-102 -230h-33l103 230h-141v31h173z" glyph-name="seven.dnom" horiz-adv-x="225"/><glyph d="M162 142q45 -22 45 -67q0 -34 -26.5 -55.5t-64.5 -21.5q-37 0 -63.5 21.5t-26.5 55.5q0 46 45 67q-31 22 -31 55q0 27 20.5 46.5t55.5 19.5q36 0 56.5 -19.5t20.5 -46.5q0 -34 -31 -55zM70 197q0 -18 14 -30.5t32 -12.5q20 0 33 12t13 31q0 39 -46 39q-22 0 -34 -11.5 t-12 -27.5zM116 25q27 0 42.5 13t15.5 37q0 51 -58 51q-25 0 -41.5 -13.5t-16.5 -37.5q0 -23 16.5 -36.5t41.5 -13.5z" glyph-name="eight.dnom" horiz-adv-x="233"/><glyph d="M120 87q-36 0 -61.5 21.5t-25.5 64.5q0 45 26.5 68t65.5 23q43 0 70 -32t27 -99q0 -62 -23.5 -100t-73.5 -38q-39 0 -60 21.5t-24 48.5h34q8 -38 50 -38q27 0 42 18t18 35.5t4 43.5q-7 -15 -25 -26t-44 -11zM125 232q-57 0 -57 -59q0 -29 16 -43.5t41 -14.5t42 15t17 41 q0 28 -17 44.5t-42 16.5z" glyph-name="nine.dnom" horiz-adv-x="267"/><glyph d="M155 438q46 0 76 35.5t30 90.5v13q0 55 -30 90.5t-76 35.5t-75.5 -35.5t-29.5 -90.5v-13q0 -55 29.5 -90.5t75.5 -35.5zM155 671q30 0 51 -25.5t21 -68.5v-13q0 -43 -21 -68.5t-51 -25.5q-29 0 -50 25.5t-21 68.5v13q0 43 21 68.5t50 25.5z" glyph-name="zero.numr" horiz-adv-x="291"/><glyph d="M135 701v-261h-33v215q-14 -24 -47 -24v34q14 0 27.5 11t19.5 25h33z" glyph-name="one.numr" horiz-adv-x="202"/><glyph d="M45 440v9q0 37 17 64t57 53q42 26 49 39q7 10 7 25q0 19 -13 31t-34 12q-22 0 -35 -12.5t-13 -36.5v-7h-35v7q0 37 22 59t61 22q38 0 60 -21t22 -54q0 -29 -18.5 -48.5t-55.5 -41.5q-54 -33 -54 -66v-3h131v-31h-168z" glyph-name="two.numr" horiz-adv-x="258"/><glyph d="M175 579q23 -4 41.5 -20.5t18.5 -45.5q0 -33 -25.5 -55t-70.5 -22q-43 0 -68 23.5t-25 61.5h33q1 -55 61 -55q27 0 44 12t17 36q0 48 -67 48h-11v29h11q53 0 53 43q0 19 -13.5 30t-35.5 11q-51 0 -51 -52h-33q0 39 22.5 60.5t61.5 21.5q38 0 60.5 -19.5t22.5 -49.5 q0 -44 -46 -57z" glyph-name="three.numr" horiz-adv-x="280"/><glyph d="M228 506h-30v-66h-33v66h-119v27l119 168h33v-168h30v-27zM165 533v125l-88 -125h88z" glyph-name="four.numr" horiz-adv-x="273"/><glyph d="M140 616q35 0 59.5 -24.5t24.5 -65.5q0 -42 -25.5 -66.5t-67.5 -24.5q-41 0 -66 24t-25 61h33q1 -23 16.5 -38t41.5 -15q27 0 42.5 15.5t15.5 43.5q0 32 -16.5 46.5t-38.5 14.5q-37 0 -58 -26h-31l22 140h135v-31h-111l-13 -80q20 26 62 26z" glyph-name="five.numr" horiz-adv-x="250"/><glyph d="M142 611q36 0 61.5 -21.5t25.5 -64.5q0 -45 -26.5 -68t-65.5 -23q-43 0 -70 32t-27 99q0 62 23.5 100t73.5 38q39 0 60 -21.5t24 -48.5h-34q-8 38 -50 38q-27 0 -42 -18t-18 -35.5t-4 -43.5q7 15 25 26t44 11zM137 466q57 0 57 59q0 29 -16 43.5t-41 14.5t-42 -15 t-17 -41q0 -28 17 -44.5t42 -16.5z" glyph-name="six.numr" horiz-adv-x="269"/><glyph d="M195 701v-31l-102 -230h-33l103 230h-141v31h173z" glyph-name="seven.numr" horiz-adv-x="225"/><glyph d="M162 582q45 -22 45 -67q0 -34 -26.5 -55.5t-64.5 -21.5q-37 0 -63.5 21.5t-26.5 55.5q0 46 45 67q-31 22 -31 55q0 27 20.5 46.5t55.5 19.5q36 0 56.5 -19.5t20.5 -46.5q0 -34 -31 -55zM70 637q0 -18 14 -30.5t32 -12.5q20 0 33 12t13 31q0 39 -46 39q-22 0 -34 -11.5 t-12 -27.5zM116 465q27 0 42.5 13t15.5 37q0 51 -58 51q-25 0 -41.5 -13.5t-16.5 -37.5q0 -23 16.5 -36.5t41.5 -13.5z" glyph-name="eight.numr" horiz-adv-x="233"/><glyph d="M128 527q-37 0 -62.5 21.5t-25.5 64.5q0 45 26.5 68t65.5 23q43 0 70 -32t27 -99q0 -138 -96 -138q-39 0 -60.5 21.5t-24.5 48.5h34q8 -38 51 -38q61 0 64 97q-20 -37 -69 -37zM132 672q-57 0 -57 -59q0 -28 16.5 -43t40.5 -15q25 0 42 15t17 41q0 28 -16.5 44.5 t-42.5 16.5z" glyph-name="nine.numr" horiz-adv-x="262"/></font>
</defs>
</svg>
